<?xml version="1.0" encoding="UTF-8" standalone="no"?>
<!-- Created with Inkscape (http://www.inkscape.org/) -->

<svg
   xmlns:dc="http://purl.org/dc/elements/1.1/"
   xmlns:cc="http://creativecommons.org/ns#"
   xmlns:rdf="http://www.w3.org/1999/02/22-rdf-syntax-ns#"
   xmlns:svg="http://www.w3.org/2000/svg"
   xmlns="http://www.w3.org/2000/svg"
   xmlns:sodipodi="http://sodipodi.sourceforge.net/DTD/sodipodi-0.dtd"
   xmlns:inkscape="http://www.inkscape.org/namespaces/inkscape"
   width="240mm"
   height="175mm"
   viewBox="0 0 240 175"
   version="1.1"
   id="svg1553"
   inkscape:version="0.92.3 (2405546, 2018-03-11)"
   sodipodi:docname="feature-tools.svg">
  <defs
     id="defs1547" />
  <sodipodi:namedview
     id="base"
     pagecolor="#ffffff"
     bordercolor="#666666"
     borderopacity="1.0"
     inkscape:pageopacity="0.0"
     inkscape:pageshadow="2"
     inkscape:zoom="0.7328125"
     inkscape:cx="480.38685"
     inkscape:cy="560"
     inkscape:document-units="mm"
     inkscape:current-layer="layer1"
     showgrid="false"
     inkscape:window-width="1366"
     inkscape:window-height="704"
     inkscape:window-x="0"
     inkscape:window-y="27"
     inkscape:window-maximized="1" />
  <metadata
     id="metadata1550">
    <rdf:RDF>
      <cc:Work
         rdf:about="">
        <dc:format>image/svg+xml</dc:format>
        <dc:type
           rdf:resource="http://purl.org/dc/dcmitype/StillImage" />
        <dc:title></dc:title>
      </cc:Work>
    </rdf:RDF>
  </metadata>
  <g
     inkscape:label="Layer 1"
     inkscape:groupmode="layer"
     id="layer1"
     transform="translate(0,-122)">
    <g
       id="g1571"
       transform="translate(126.85998,69.918623)"
       inkscape:export-xdpi="22.58"
       inkscape:export-ydpi="22.58">
      <path
         id="path1527"
         d="m 34.206969,52.477134 c -19.05771,0 -34.50596979,15.44822 -34.50596979,34.50597 0,15.407126 22.55211979,43.488436 31.19229979,53.681396 1.74993,2.06483 4.88012,2.06483 6.62733,0 8.64019,-10.19296 31.19231,-38.27427 31.19231,-53.681396 0,-19.05775 -15.44827,-34.50597 -34.50597,-34.50597 z m 0,46.007961 c -6.35349,0 -11.50199,-5.148551 -11.50199,-11.501991 0,-6.353551 5.1485,-11.50199 11.50199,-11.50199 6.35348,0 11.50198,5.148439 11.50198,11.50199 0,6.35344 -5.1485,11.501991 -11.50198,11.501991 z m -73.360791,13.131355 a 8.765064,8.765064 0 0 0 -5.510004,8.13632 v 68.55186 c 0,3.10008 3.130188,5.21975 6.008423,4.0695 L -0.84672079,175.16498 V 111.3344 C -3.2676108,106.95821 -5.2476008,102.69701 -6.6661808,98.622024 Z m 73.360791,39.35881 c -3.85318,0 -7.49821,-1.69252 -9.99853,-4.64469 -5.38402,-6.35345 -11.11037,-13.58874 -16.2917498,-21.01026 v 49.84198 L 60.497229,192.6891 v -67.36611 c -5.18137,7.41884 -10.90499,14.65682 -16.29175,21.01038 -2.50031,2.94937 -6.14534,4.64189 -9.99851,4.64189 z M 107.06933,96.611855 69.260649,113.821 v 78.87079 l 38.307101,-15.32225 a 8.7623253,8.7623253 0 0 0 5.51,-8.13632 v -68.55186 c 0,-3.100077 -3.13018,-5.219646 -6.00842,-4.069505 z"
         inkscape:connector-curvature="0"
         style="fill:#ffb380;stroke-width:0.27385691" />
      <path
         id="path1519"
         d="m -72.013792,150.53814 h -19.17438 c -1.513396,0 -2.739187,-1.22578 -2.739187,-2.7391 v -5.47849 c 0,-1.51332 1.225791,-2.73911 2.739187,-2.73911 h 19.17438 v -21.91365 h -19.17438 c -1.513396,0 -2.739187,-1.22578 -2.739187,-2.73912 v -5.47848 c 0,-1.51333 1.225791,-2.7391 2.739187,-2.7391 h 19.17438 V 84.797424 h -19.17438 c -1.513396,0 -2.739187,-1.225781 -2.739187,-2.73911 v -5.47848 c 0,-1.51333 1.225791,-2.73911 2.739187,-2.73911 h 19.17438 v -10.95683 c 0,-6.05022 -4.906587,-10.95683 -10.95679,-10.95683 h -32.870358 c -6.05019,0 -10.95678,4.90661 -10.95678,10.95683 V 216.27886 c 0,0.94845 0.31158,1.79415 0.53756,2.67078 l 54.246368,-54.24295 z M 37.554079,172.4518 h -10.95679 v 19.17429 c 0,1.51346 -1.2258,2.73924 -2.73919,2.73924 h -5.47841 c -1.5134,0 -2.73918,-1.22578 -2.73918,-2.73924 V 172.4518 H -6.2730708 v 19.17429 c 0,1.51346 -1.2258,2.73924 -2.7392,2.73924 h -5.4783902 c -1.51342,0 -2.7392,-1.22578 -2.7392,-2.73924 V 172.4518 h -21.913571 v 19.17429 c 0,1.51346 -1.225794,2.73924 -2.7392,2.73924 h -5.478391 c -1.513406,0 -2.739199,-1.22578 -2.739199,-2.73924 V 172.4518 h -14.16507 l -54.246368,54.24632 c 0.87655,0.22595 1.72569,0.53757 2.67072,0.53757 H 37.554079 c 6.0502,0 10.95679,-4.90661 10.95679,-10.95683 V 183.4085 c 0,-6.05022 -4.90659,-10.9567 -10.95679,-10.9567 z"
         inkscape:connector-curvature="0"
         style="fill:#ececec;stroke-width:0.34239957" />
      <path
         style="fill:#8787de;stroke-width:0.15045916"
         inkscape:connector-curvature="0"
         d="m -25.506861,129.89004 -17.61877,-17.61878 c -3.475612,-3.4756 -8.666451,-4.15267 -12.849212,-2.09138 L -72.013792,94.140935 v -9.343511 l -19.258769,-14.44408 -9.629389,9.62938 14.444078,19.25878 h 9.343519 l 16.038941,16.038936 c -2.046239,4.18277 -1.384231,9.37362 2.091381,12.84922 l 17.618771,17.61878 c 2.196698,2.1967 5.747538,2.1967 7.9292,0 l 7.929199,-7.9292 c 2.18165,-2.19672 2.18165,-5.74755 0,-7.9292 z m -25.487791,-25.68339 c 4.258001,0 8.26021,1.65505 11.26939,4.66423 l 2.91891,2.91891 c 2.37726,-1.03815 4.63414,-2.48257 6.59011,-4.43853 5.582051,-5.58205 7.477821,-13.436014 5.702401,-20.567776 -0.33101,-1.35413 -2.0312,-1.820561 -3.024231,-0.827529 l -11.194161,11.194161 -10.216168,-1.700181 -1.700191,-10.216182 11.194161,-11.194159 c 0.993028,-0.99303 0.511561,-2.69322 -0.857621,-3.03928 -7.131759,-1.76037 -14.98573,0.13541 -20.552709,5.70241 -4.288091,4.288081 -6.30424,9.945352 -6.198931,15.587559 l 12.352711,12.352697 c 1.21871,-0.28587 2.482569,-0.43633 3.716329,-0.43633 z m -15.632699,12.33765 -8.53104,-8.53103 -22.929972,22.94503 c -3.761477,3.76147 -3.761477,9.85507 0,13.61654 3.76147,3.76148 9.85507,3.76148 13.616551,0 l 18.59675,-18.59675 c -1.143489,-2.99413 -1.48954,-6.2591 -0.752289,-9.43379 z m -24.64521,24.82577 c -1.986061,0 -3.61102,-1.62496 -3.61102,-3.61102 0,-2.00111 1.60991,-3.61102 3.61102,-3.61102 2.001099,0 3.61102,1.60991 3.61102,3.61102 0,1.98606 -1.609921,3.61102 -3.61102,3.61102 z"
         id="path1453" />
      <path
         id="path1523"
         d="m 88.346729,210.10264 v 2.72599 c 0,4.51666 -3.66138,8.17804 -8.17805,8.17804 h -65.42428 c -4.51667,0 -8.1780398,-3.66138 -8.1780398,-8.17804 v -43.61617 c 0,-4.51673 3.6613698,-8.17804 8.1780398,-8.17804 h 2.72601 v 35.43814 c 0,7.51561 6.11445,13.63008 13.63005,13.63008 z M 104.7028,196.47256 v -43.61618 c 0,-4.51668 -3.66138,-8.178 -8.178041,-8.178 h -65.4243 c -4.51664,0 -8.17803,3.66132 -8.17803,8.178 v 43.61618 c 0,4.51665 3.66139,8.17803 8.17803,8.17803 h 65.4243 c 4.516661,0 8.178041,-3.66138 8.178041,-8.17803 z M 50.182559,161.03442 c 0,4.51666 -3.66137,8.17804 -8.17804,8.17804 -4.51666,0 -8.17805,-3.66138 -8.17805,-8.17804 0,-4.51672 3.66139,-8.17804 8.17805,-8.17804 4.51667,0 8.17804,3.66132 8.17804,8.17804 z m -16.35609,24.53411 9.45842,-9.45845 c 0.79839,-0.79835 2.0929,-0.79835 2.89145,0 l 6.73223,6.73239 23.08847,-23.08846 c 0.79838,-0.79836 2.0929,-0.79836 2.89144,0 l 14.91027,14.91043 v 19.08213 h -59.97228 z"
         inkscape:connector-curvature="0"
         style="fill:#ff8080;stroke-width:0.17037575" />
    </g>
  </g>
</svg>
