<?xml version="1.0" encoding="UTF-8"?>
<svg width="240mm" height="175mm" version="1.1" viewBox="0 0 240 175" xmlns="http://www.w3.org/2000/svg">
 <g transform="translate(0,-122)">
  <g transform="matrix(.889 0 0 .8881 206.02 137.16)">
   <g transform="matrix(1.0601 0 0 1.0601 -235 -122.14)">
    <rect x="12.209" y="112.23" width="116.4" height="153.43" fill="#fff"/>
    <g transform="translate(-19.942 8.1395)">
     <path d="m145.78 94.397h-110.07c-7.0141 0-12.7 5.6859-12.7 12.7v142.78c0 7.0141 5.6859 12.7 12.7 12.7h110.07c7.0141 0 12.7-5.6859 12.7-12.7v-142.78c0-7.0141-5.6859-12.7-12.7-12.7zm-1.5875 155.48h-106.89c-0.87675 0-1.5875-0.71075-1.5875-1.5875v-139.61c0-0.87675 0.71075-1.5875 1.5875-1.5875h106.89c0.87675 0 1.5875 0.71075 1.5875 1.5875v139.61c0 0.87675-0.71075 1.5875-1.5875 1.5875zm-11.112-24.342v6.35c0 1.7534-1.4216 3.175-3.175 3.175h-52.917c-1.7534 0-3.175-1.4216-3.175-3.175v-6.35c0-1.7534 1.4216-3.175 3.175-3.175h52.917c1.7534 0 3.175 1.4216 3.175 3.175zm0-25.4v6.35c0 1.7534-1.4216 3.175-3.175 3.175h-52.917c-1.7534 0-3.175-1.4216-3.175-3.175v-6.35c0-1.7534 1.4216-3.175 3.175-3.175h52.917c1.7534 0 3.175 1.4216 3.175 3.175zm0-25.4v6.35c0 1.7534-1.4216 3.175-3.175 3.175h-52.917c-1.7534 0-3.175-1.4216-3.175-3.175v-6.35c0-1.7534 1.4216-3.175 3.175-3.175h52.917c1.7534 0 3.175 1.4216 3.175 3.175z" fill="#f95" stroke-width=".26458"/>
     <path d="m133.08 149.35v6.35c0 1.7534-1.4216 3.175-3.175 3.175h-52.917c-1.7534 0-3.175-1.4216-3.175-3.175v-6.35c0-1.7534 1.4216-3.175 3.175-3.175h52.917c1.7534 0 3.175 1.4216 3.175 3.175zm0-25.4v6.35c0 1.7534-1.4216 3.175-3.175 3.175h-52.917c-1.7534 0-3.175-1.4216-3.175-3.175v-6.35c0-1.7534 1.4216-3.175 3.175-3.175h52.917c1.7534 0 3.175 1.4216 3.175 3.175z" fill="#f95" stroke-width=".26458"/>
     <g fill="#f00" stroke-width=".042485">
      <path d="m64.041 118.87c-2.3282-1.984-5.7907-1.6272-7.9276 0.57778l-0.83695 0.86245-0.83694-0.86245c-2.1327-2.205-5.5995-2.5618-7.9277-0.57778-2.668 2.2772-2.8082 6.3642-0.4206 8.8326l8.2208 8.4884c0.53106 0.54806 1.3935 0.54806 1.9246 0l8.2208-8.4884c2.3919-2.4684 2.2517-6.5554-0.41635-8.8326z"/>
      <path d="m64.041 143.67c-2.3282-1.984-5.7907-1.6272-7.9276 0.57778l-0.83695 0.86245-0.83694-0.86245c-2.1327-2.205-5.5995-2.5618-7.9277-0.57778-2.668 2.2772-2.8082 6.3642-0.4206 8.8326l8.2208 8.4884c0.53106 0.54806 1.3935 0.54806 1.9246 0l8.2208-8.4884c2.3919-2.4684 2.2517-6.5554-0.41635-8.8326z"/>
      <path d="m64.041 169.33c-2.3282-1.984-5.7907-1.6272-7.9276 0.57778l-0.83695 0.86245-0.83694-0.86245c-2.1327-2.205-5.5995-2.5618-7.9277-0.57778-2.668 2.2772-2.8082 6.3642-0.4206 8.8326l8.2208 8.4884c0.53106 0.54806 1.3935 0.54806 1.9246 0l8.2208-8.4884c2.3919-2.4684 2.2517-6.5554-0.41635-8.8326z"/>
      <path d="m64.041 194.99c-2.3282-1.984-5.7907-1.6272-7.9276 0.57778l-0.83695 0.86245-0.83694-0.86245c-2.1327-2.205-5.5995-2.5618-7.9277-0.57778-2.668 2.2772-2.8082 6.3642-0.4206 8.8326l8.2208 8.4884c0.53106 0.54806 1.3935 0.54806 1.9246 0l8.2208-8.4884c2.3919-2.4684 2.2517-6.5554-0.41635-8.8326z"/>
      <path d="m64.041 220.92c-2.3282-1.984-5.7907-1.6272-7.9276 0.57778l-0.83695 0.86245-0.83694-0.86245c-2.1327-2.205-5.5995-2.5618-7.9277-0.57778-2.668 2.2772-2.8082 6.3642-0.4206 8.8326l8.2208 8.4884c0.53106 0.54806 1.3935 0.54806 1.9246 0l8.2208-8.4884c2.3919-2.4684 2.2517-6.5554-0.41635-8.8326z"/>
     </g>
    </g>
   </g>
   <path d="m-90.216 129.18h25.4c4.6567 0 8.4667-3.81 8.4667-8.4667s-3.81-8.4667-8.4667-8.4667h-25.4s-25.4-28.31-25.4-42.333c0-14.023 11.377-25.4 25.4-25.4 14.023 0 25.4 11.377 25.4 25.4 0 6.7469-5.8738 16.775-11.986 25.4h11.986c13.996 0 25.4 11.404 25.4 25.4s-11.404 25.4-25.4 25.4h-25.4c-4.6567 0-8.4667 3.81-8.4667 8.4667 0 4.6567 3.81 8.4667 8.4667 8.4667h60.986c4.2333 6.5617 8.9429 12.621 12.515 16.933h-73.501c-13.996 0-25.4-11.404-25.4-25.4 0-13.996 11.404-25.4 25.4-25.4zm0-67.733c-4.6831 0-8.4667 3.7835-8.4667 8.4667 0 4.6831 3.7835 8.4667 8.4667 8.4667 4.6831 0 8.4667-3.7836 8.4667-8.4667 0-4.6831-3.7835-8.4667-8.4667-8.4667zm84.667 50.8c14.023 0 25.4 11.377 25.4 25.4 0 14.023-25.4 42.333-25.4 42.333s-25.4-28.31-25.4-42.333c0-14.023 11.377-25.4 25.4-25.4zm0 33.867c4.6831 0 8.4667-3.7835 8.4667-8.4667 0-4.6831-3.7835-8.4667-8.4667-8.4667-4.6831 0-8.4667 3.7835-8.4667 8.4667 0 4.6831 3.7835 8.4667 8.4667 8.4667z" fill="#afa" stroke-width=".26458"/>
   <path d="m-12.178-14.329c-14.499 6.7909-20.748 24.049-13.957 38.549 6.7909 14.499 24.049 20.748 38.549 13.957 14.499-6.7909 20.748-24.049 13.957-38.549-6.7909-14.499-24.049-20.748-38.549-13.957zm26.441 33.775c-0.2205 0.60405-0.45167 1.2377-0.63801 1.7548-0.16779 0.46579-0.2077 0.96211-0.12218 1.4396 0.12078 0.67404 0.27523 1.34 0.33148 2.0223l0.48192 5.8216c-1.3079 0.99977-2.7315 1.8847-4.2823 2.611l-1.3575-2.8984c-0.4468-1.4197-2.6065-3.4596-4.9365-4.3033-0.93263-0.33768-1.693-1.0323-2.1139-1.931l-1.587-3.3885c-0.57711-1.2322-1.7713-2.054-3.1292-2.1448-1.9154-0.12914-4.6299-0.29183-6.4615-0.344-1.5018-0.0427-2.9909-0.29526-4.4288-0.73323l-0.12041-0.0366a13.418 13.418 0 0 1-2.94-1.3001c-1.6757-0.99265-4.4162-2.6328-6.1971-3.6987-0.089-5.8315 2.0045-11.529 5.8729-15.903l3.1371 0.0809c1.3901 0.0356 2.3322-1.4034 1.7422-2.6631l-0.56025-1.1962c0.78183-0.53274 1.6018-1.0226 2.4619-1.4654l4.3989 1.5927c0.9715 0.35177 1.4737 1.4241 1.122 2.3956l-0.26446 0.72792-0.58192 1.6072c-0.17559 0.48498 0.0758 1.0217 0.56074 1.1972l0.729 0.26394c0.48498 0.17561 0.73635 0.71232 0.56075 1.1973l-0.45023 1.2435a0.93608 0.93608 0 0 1-0.48313 0.52835l-0.95168 0.44572c-0.22017 0.10312-0.39175 0.28799-0.47814 0.51695l-0.57168 1.5134a0.93608 0.93608 0 0 0 0.29433 1.0639l3.1967 2.5288c0.54535 0.43129 0.4461 1.2858-0.18274 1.5803l-0.59705 0.27963c-0.20431 0.0957-0.43587 0.11388-0.65189 0.0523l-1.382-0.39312a1.8723 1.8723 0 0 0-1.7998 0.4428l-2.7845 2.6453a1.3969 1.3969 0 0 0-0.30264 1.6055c0.22459 0.4795 0.70037 0.78981 1.2297 0.8039l1.4476 0.0371c1.2296 0.032 2.4499-0.22323 3.5635-0.7448 1.1136-0.52158 3.7444 1.7689 4.974 1.8009l7.066-3.3094c0.89874-0.42093 1.9265-0.46724 2.8601-0.13008l2.1279 0.77045a3.5656 3.5656 0 0 1 2.0148 1.8406 5.4398 5.4398 0 0 1 0.18276 4.1715zm4.6499-13.969c-0.68482 0.13355-1.3954 8e-3 -1.9922-0.35385l-3.2405-1.9636a2.8019 2.8019 0 0 1-1.3198-2.818l0.61713-4.0814c0.0735-0.48234 0.27037-0.93852 0.57406-1.3209l1.0523-1.3305c2.7659 2.1794 5.0928 4.9981 6.6858 8.3993 0.42987 0.91782 0.77247 1.8532 1.0736 2.7939z" fill="#aaf" stroke-width=".11689"/>
   <path d="m29.802 65.715 8.3119-36.572c0.6001-2.6406-1.407-5.1551-4.1149-5.1551h-69.062l-1.6116-7.8788c-0.40159-1.9638-2.1296-3.3741-4.1342-3.3741h-18.027c-2.3306 0-4.2198 1.8893-4.2198 4.2199v2.8132c0 2.3306 1.8892 4.2198 4.2198 4.2198h12.287l12.352 60.385c-2.955 1.6994-4.9462 4.8857-4.9462 8.5391 0 5.438 4.4083 9.8463 9.8464 9.8463 5.438 0 9.8464-4.4083 9.8464-9.8463 0-2.7559-1.1336-5.2458-2.9581-7.0331h36.862c-1.8244 1.7873-2.958 4.2772-2.958 7.0331 0 5.438 4.4084 9.8463 9.8464 9.8463 5.438 0 9.8464-4.4083 9.8464-9.8463 0-3.8984-2.2661-7.2673-5.5525-8.8626l0.97005-4.2684c0.60009-2.6406-1.407-5.1551-4.1149-5.1551h-47.195l-1.1508-5.6265h51.543c1.9703 0 3.6783-1.3634 4.1149-3.2846z" fill="#ccc" stroke-width=".17583"/>
  </g>
 </g>
</svg>
