<?xml version="1.0" encoding="UTF-8"?>
<svg width="240mm" height="175mm" version="1.1" viewBox="0 0 240 175" xmlns="http://www.w3.org/2000/svg">
 <g transform="translate(0,-122)">
  <g transform="translate(126.86 69.919)">
   <path d="m34.207 52.477c-19.058 0-34.506 15.448-34.506 34.506 0 15.407 22.552 43.488 31.192 53.681 1.7499 2.0648 4.8801 2.0648 6.6273 0 8.6402-10.193 31.192-38.274 31.192-53.681 0-19.058-15.448-34.506-34.506-34.506zm0 46.008c-6.3535 0-11.502-5.1486-11.502-11.502 0-6.3536 5.1485-11.502 11.502-11.502 6.3535 0 11.502 5.1484 11.502 11.502 0 6.3534-5.1485 11.502-11.502 11.502zm-73.361 13.131a8.7651 8.7651 0 0 0-5.51 8.1363v68.552c0 3.1001 3.1302 5.2198 6.0084 4.0695l37.809-17.209v-63.831c-2.4209-4.3762-4.4009-8.6374-5.8195-12.712zm73.361 39.359c-3.8532 0-7.4982-1.6925-9.9985-4.6447-5.384-6.3534-11.11-13.589-16.292-21.01v49.842l52.581 17.527v-67.366c-5.1814 7.4188-10.905 14.657-16.292 21.01-2.5003 2.9494-6.1453 4.6419-9.9985 4.6419zm72.862-54.363-37.809 17.209v78.871l38.307-15.322a8.7623 8.7623 0 0 0 5.51-8.1363v-68.552c0-3.1001-3.1302-5.2196-6.0084-4.0695z" fill="#ffb380" stroke-width=".27386"/>
   <path d="m-72.014 150.54h-19.174c-1.5134 0-2.7392-1.2258-2.7392-2.7391v-5.4785c0-1.5133 1.2258-2.7391 2.7392-2.7391h19.174v-21.914h-19.174c-1.5134 0-2.7392-1.2258-2.7392-2.7391v-5.4785c0-1.5133 1.2258-2.7391 2.7392-2.7391h19.174v-21.914h-19.174c-1.5134 0-2.7392-1.2258-2.7392-2.7391v-5.4785c0-1.5133 1.2258-2.7391 2.7392-2.7391h19.174v-10.957c0-6.0502-4.9066-10.957-10.957-10.957h-32.87c-6.0502 0-10.957 4.9066-10.957 10.957v153.39c0 0.94845 0.31158 1.7942 0.53756 2.6708l54.246-54.243zm109.57 21.914h-10.957v19.174c0 1.5135-1.2258 2.7392-2.7392 2.7392h-5.4784c-1.5134 0-2.7392-1.2258-2.7392-2.7392v-19.174h-21.914v19.174c0 1.5135-1.2258 2.7392-2.7392 2.7392h-5.4784c-1.5134 0-2.7392-1.2258-2.7392-2.7392v-19.174h-21.914v19.174c0 1.5135-1.2258 2.7392-2.7392 2.7392h-5.4784c-1.5134 0-2.7392-1.2258-2.7392-2.7392v-19.174h-14.165l-54.246 54.246c0.87655 0.22595 1.7257 0.53757 2.6707 0.53757h153.4c6.0502 0 10.957-4.9066 10.957-10.957v-32.87c0-6.0502-4.9066-10.957-10.957-10.957z" fill="#ececec" stroke-width=".3424"/>
   <path d="m-25.507 129.89-17.619-17.619c-3.4756-3.4756-8.6665-4.1527-12.849-2.0914l-16.039-16.039v-9.3435l-19.259-14.444-9.6294 9.6294 14.444 19.259h9.3435l16.039 16.039c-2.0462 4.1828-1.3842 9.3736 2.0914 12.849l17.619 17.619c2.1967 2.1967 5.7475 2.1967 7.9292 0l7.9292-7.9292c2.1816-2.1967 2.1816-5.7476 0-7.9292zm-25.488-25.683c4.258 0 8.2602 1.655 11.269 4.6642l2.9189 2.9189c2.3773-1.0382 4.6341-2.4826 6.5901-4.4385 5.5821-5.582 7.4778-13.436 5.7024-20.568-0.33101-1.3541-2.0312-1.8206-3.0242-0.82753l-11.194 11.194-10.216-1.7002-1.7002-10.216 11.194-11.194c0.99303-0.99303 0.51156-2.6932-0.85762-3.0393-7.1318-1.7604-14.986 0.13541-20.553 5.7024-4.2881 4.2881-6.3042 9.9454-6.1989 15.588l12.353 12.353c1.2187-0.28587 2.4826-0.43633 3.7163-0.43633zm-15.633 12.338-8.531-8.531-22.93 22.945c-3.7615 3.7615-3.7615 9.8551 0 13.617 3.7615 3.7615 9.8551 3.7615 13.617 0l18.597-18.597c-1.1435-2.9941-1.4895-6.2591-0.75229-9.4338zm-24.645 24.826c-1.9861 0-3.611-1.625-3.611-3.611 0-2.0011 1.6099-3.611 3.611-3.611 2.0011 0 3.611 1.6099 3.611 3.611 0 1.9861-1.6099 3.611-3.611 3.611z" fill="#8787de" stroke-width=".15046"/>
   <path d="m88.347 210.1v2.726c0 4.5167-3.6614 8.178-8.178 8.178h-65.424c-4.5167 0-8.178-3.6614-8.178-8.178v-43.616c0-4.5167 3.6614-8.178 8.178-8.178h2.726v35.438c0 7.5156 6.1144 13.63 13.63 13.63zm16.356-13.63v-43.616c0-4.5167-3.6614-8.178-8.178-8.178h-65.424c-4.5166 0-8.178 3.6613-8.178 8.178v43.616c0 4.5166 3.6614 8.178 8.178 8.178h65.424c4.5167 0 8.178-3.6614 8.178-8.178zm-54.52-35.438c0 4.5167-3.6614 8.178-8.178 8.178-4.5167 0-8.178-3.6614-8.178-8.178 0-4.5167 3.6614-8.178 8.178-8.178 4.5167 0 8.178 3.6613 8.178 8.178zm-16.356 24.534 9.4584-9.4584c0.79839-0.79835 2.0929-0.79835 2.8914 0l6.7322 6.7324 23.088-23.088c0.79838-0.79836 2.0929-0.79836 2.8914 0l14.91 14.91v19.082h-59.972z" fill="#ff8080" stroke-width=".17038"/>
  </g>
 </g>
</svg>
