<?xml version="1.0" encoding="UTF-8"?>
<svg width="240mm" height="175mm" version="1.1" viewBox="0 0 240 175" xmlns="http://www.w3.org/2000/svg">
 <g transform="translate(0,-122)">
  <g transform="matrix(1.1263 0 0 .95376 -4.9745 5.3822)" fill="#f55" stroke-width=".227">
   <path d="m89.817 222.1h-82.298a3.1653 4.1674 0 0 0-3.1653 4.1674v8.3348a3.1653 4.1674 0 0 0 3.1653 4.1674h82.298a3.1653 4.1674 0 0 0 3.1653-4.1674v-8.3348a3.1653 4.1674 0 0 0-3.1653-4.1674zm0-33.339h-82.298a3.1653 4.1674 0 0 0-3.1653 4.1674v8.3348a3.1653 4.1674 0 0 0 3.1653 4.1674h82.298a3.1653 4.1674 0 0 0 3.1653-4.1674v-8.3348a3.1653 4.1674 0 0 0-3.1653-4.1674zm0-33.339h-82.298a3.1653 4.1674 0 0 0-3.1653 4.1674v8.3348a3.1653 4.1674 0 0 0 3.1653 4.1674h82.298a3.1653 4.1674 0 0 0 3.1653-4.1674v-8.3348a3.1653 4.1674 0 0 0-3.1653-4.1674zm0-33.339h-82.298a3.1653 4.1674 0 0 0-3.1653 4.1674v8.3348a3.1653 4.1674 0 0 0 3.1653 4.1674h82.298a3.1653 4.1674 0 0 0 3.1653-4.1674v-8.3348a3.1653 4.1674 0 0 0-3.1653-4.1674z"/>
   <path d="m89.817 288.78h-82.298a3.1653 4.1674 0 0 0-3.1653 4.1674v8.3348a3.1653 4.1674 0 0 0 3.1653 4.1674h82.298a3.1653 4.1674 0 0 0 3.1653-4.1674v-8.3348a3.1653 4.1674 0 0 0-3.1653-4.1674zm0-33.339h-82.298a3.1653 4.1674 0 0 0-3.1653 4.1674v8.3348a3.1653 4.1674 0 0 0 3.1653 4.1674h82.298a3.1653 4.1674 0 0 0 3.1653-4.1674v-8.3348a3.1653 4.1674 0 0 0-3.1653-4.1674zm0-33.339h-82.298a3.1653 4.1674 0 0 0-3.1653 4.1674v8.3348a3.1653 4.1674 0 0 0 3.1653 4.1674h82.298a3.1653 4.1674 0 0 0 3.1653-4.1674v-8.3348a3.1653 4.1674 0 0 0-3.1653-4.1674zm0-33.339h-82.298a3.1653 4.1674 0 0 0-3.1653 4.1674v8.3348a3.1653 4.1674 0 0 0 3.1653 4.1674h82.298a3.1653 4.1674 0 0 0 3.1653-4.1674v-8.3348a3.1653 4.1674 0 0 0-3.1653-4.1674z"/>
  </g>
  <g fill="#666" stroke-width=".055845">
   <path d="m42.807 216.13-3.0603 6.1374-3.0659-6.1374h-2.0942l0.60872 1.1504c-0.64222-1.061-2.0048-1.452-3.535-1.452-1.7759 0-3.7919 0.4859-3.9929 2.407h1.882c0.0782-0.7707 0.87677-1.2175 1.9546-1.2175 1.452 0 2.2896 0.5361 2.2896 1.8429v0.1899c-0.70923 0-1.5637 0.01-2.3287 0.022-2.3678 0.05-3.8868 0.5585-4.2833 1.9211 0.0559-0.2904 0.0838-0.5919 0.0838-0.9047 0-2.9095-2.217-4.2554-4.2107-4.2554-1.1895 0-2.4013 0.3072-3.2781 1.3515v-4.5012h-1.7926v9.4658c0 0.5752-0.0335 1.2789-0.0614 1.8485h1.7591c0.0391-0.3519 0.0614-0.7204 0.0614-1.089 0.7595 0.927 1.9769 1.3906 3.2781 1.3906 2.0607 0 3.6244-1.2231 4.0935-3.0269-0.0279 0.1564-0.0391 0.3239-0.0391 0.5026 0 1.3459 1.1783 2.5131 3.3842 2.5131 1.4855 0 2.5577-0.3183 3.4568-1.4241 0 0.3686 0.0168 0.7428 0.0614 1.1281h1.6642c-0.0391-0.4579-0.0558-0.9773-0.0558-1.4967v-3.6634c0-0.5194-0.0949-0.9605-0.26805-1.3291l3.4345 6.4836-1.5916 3.0212h2.0048l5.5398-10.879zm-20.233 6.9415c-1.653 0-2.8034-1.2006-2.8034-3.0044 0-1.8094 1.1504-3.0045 2.8034-3.0045 1.6642 0 2.8034 1.1951 2.8034 3.0045 0 1.8038-1.1392 3.0044-2.8034 3.0044zm11.219-2.6414c0 1.6753-0.99963 2.7029-2.8816 2.7029-1.4017 0-1.9546-0.7483-1.9546-1.4408 0-1.0667 1.0108-1.3626 2.6359-1.4129 0.73157-0.028 1.5413-0.034 2.2003-0.034zm-23.003 0.089h7.1929v-0.4747c0-2.8871-1.8485-4.2107-4.3783-4.2107-3.172 0-4.6352 1.72-4.6352 4.3336 0 2.3734 1.4129 4.1326 4.6072 4.1326 1.7535 0 3.7975-0.6535 4.1549-2.5745h-1.8485c-0.67014 1.9992-4.8976 2.0495-5.0931-1.2063zm5.3053-1.1951h-5.2718c0.38533-3.1608 5.1433-3.0547 5.2718 0z"/>
   <path d="m80.396 154.33h-19.658a2.6806 2.6806 0 0 0-2.6806 2.6806v19.658a2.6806 2.6806 0 0 0 2.6806 2.6806h7.6648v-8.5058h-3.5182v-4.0036h3.5182v-3.0514c0-3.4707 2.0663-5.3879 5.231-5.3879 1.5156 0 3.1005 0.2703 3.1005 0.2703v3.4066h-1.7463c-1.7206 0-2.2573 1.0677-2.2573 2.1628v2.5996h3.841l-0.61429 4.0036h-3.2267v8.5058h7.6648a2.6806 2.6806 0 0 0 2.6806-2.6806v-19.658a2.6806 2.6806 0 0 0-2.6806-2.6806z"/>
   <path d="m66.797 224.14c-2.8649 3.9594-6.5116 6.1877-8.1367 4.9814-1.6307-1.2118-0.62546-5.3946 2.245-9.3541 2.8649-3.9594 6.5116-6.1876 8.1366-4.9813 1.6251 1.2062 0.61988 5.3946-2.245 9.354zm19.613-3.1999c-4.1214 6.8913-10.717 10.482-14.771 8.0194-1.3961-0.8489-2.3064-2.3009-2.7364-4.1214-1.8764 3.6188-5.1824 6.3552-9.1642 7.4386 2.7811 3.3116 6.9304 5.4114 11.56 5.4114 8.3768 0 15.168-6.8746 15.168-15.352 6e-3 -0.4747-0.0168-0.9382-0.0558-1.3961z"/>
   <path d="m28.305 259.86c-1.4095-1.7686-2.2383-3.3188-2.513-4.6452-1.2593-4.9143 6.2887-4.9143 5.0294 0-0.30436 1.3543-1.1331 2.904-2.513 4.6452zm7.715 4.0896c-2.3488 1.0225-4.6726-0.6076-6.6623-2.8185 5.8023-7.2638 2.575-11.169-1.0527-11.169-3.067 0-4.7558 2.5974-4.0923 5.6125 0.38701 1.6301 1.409 3.4842 3.0396 5.5566-1.8166 2.0132-3.3814 2.9425-4.7552 3.067-2.7922 0.4149-4.9764-2.293-3.9818-5.0869 0.84327-2.1869 6.239-12.91 6.4708-13.49 0.87957-1.6793 1.4274-3.2055 3.3161-3.2055 1.806 0 2.4237 1.4486 3.3714 3.3434 2.0104 3.9438 4.9898 9.9114 6.4133 13.352 0.73548 1.8468-0.0765 3.9812-2.0668 4.8384zm2.6247-7.6017c-7.1973-15.318-7.5961-15.538-10.34-15.538-2.5421 0-3.6227 1.7687-4.7278 4.065-5.9285 11.856-6.5032 13.537-6.5529 13.683-1.4084 3.8717 1.4933 7.2705 5.0054 7.2705 1.2124 0 3.3848-0.3384 6.2753-3.4848 3.277 3.5619 5.6549 3.4848 6.2753 3.4848 3.5121 0 6.4138-3.3988 5.0043-7.2705 1e-3 -0.2172-0.93931-2.1724-0.93931-2.2104z"/>
   <path d="m67.804 268.35c-2.7197 0.1005-9.4658 0.8656-9.4658 6.5618 0 6.115 7.7234 6.3663 10.248 2.4125 0.36299 0.5696 1.9769 2.0942 2.5298 2.6136l3.172-3.1274s-1.8038-1.4128-1.8038-2.9486v-8.2148c0-1.4129-1.3682-4.5961-6.2714-4.5961-4.9144 0-7.5224 3.0715-7.5224 5.8247l4.1046 0.3797c0.91027-2.7643 3.0268-2.7643 3.0268-2.7643 2.2729-0.01 1.9825 1.6642 1.9825 3.8589zm0 4.8473c0 4.4676-4.7022 3.7975-4.7022 0.9606 0-2.6359 2.8202-3.1665 4.7022-3.2279zm7.5949 9.1307c-0.43001 0.5585-3.9092 3.7417-9.745 3.7417-5.8358 0-10.303-3.993-11.672-5.6404-0.37975-0.43 0.0558-0.6311 0.30714-0.4635 4.0935 2.4851 10.488 6.5785 20.802 1.6921 0.41883-0.2066 0.74274 0.1117 0.30714 0.6701zm2.2226 0.1229c-0.36299 0.8824-0.89352 1.4966-1.1839 1.7312-0.30715 0.2513-0.53054 0.1508-0.363-0.2122s1.0778-2.5968 0.70923-3.0715c-0.36299-0.4635-2.0663-0.2401-2.6806-0.1787-0.60312 0.056-0.72598 0.1117-0.78183-0.017-0.12844-0.3183 1.2118-0.8656 2.0942-0.9773 0.87677-0.1005 2.2896-0.045 2.5689 0.3183 0.20663 0.2848 0 1.5135-0.36299 2.407z"/>
   <path d="m19.125 157.54c0 0.7392-0.59922 1.3384-1.3384 1.3384-0.73916 0-1.3384-0.5992-1.3384-1.3384s0.59922-1.3384 1.3384-1.3384c0.73917 0 1.3384 0.5992 1.3384 1.3384zm14.797-1.3378c-0.73883 0-1.3378 0.5989-1.3378 1.3378 0 0.7388 0.59894 1.3378 1.3378 1.3378 0.73883 0 1.3378-0.5989 1.3378-1.3378-6e-5 -0.7389-0.599-1.3378-1.3378-1.3378zm4.9919 7.7898c-3.4996 2.7422-8.5597 2.1282-11.302-1.3715l-1.73 2.587-1.7135-2.5654c-2.696 3.3725-7.5738 4.0147-11.051 1.455-3.5773-2.6335-4.3425-7.6684-1.7089-11.246a10.43 10.43 0 0 0-1.5761-3.1914h5.042a20.019 20.019 0 0 1 11.005-3.0173 19.567 19.567 0 0 1 10.732 2.9793h5.3733a10.371 10.371 0 0 0-1.5833 3.2194c2.6132 3.5041 1.9526 8.4533-1.4882 11.149zm-14.597-6.3828c-4.2e-4 -3.5493-2.878-6.4264-6.4273-6.426-3.5494 0-6.4263 2.878-6.426 6.4274 4.3e-4 3.5493 2.878 6.4264 6.4273 6.426 3.5469 0 6.4213-2.8782 6.426-6.4251zm1.5967-0.5838c0.30341-4.1013 3.6584-7.3093 7.7692-7.4287a18.94 18.94 0 0 0-7.8031-1.5531 19.898 19.898 0 0 0-7.8275 1.5219c4.1518 0.088 7.5558 3.3186 7.8614 7.4599zm14.057-1.6065c-1.2282-3.3303-4.9234-5.0344-8.2536-3.8063-3.3303 1.2282-5.0343 4.9235-3.8062 8.2537 1.2307 3.3288 4.9254 5.0311 8.2554 3.8038 3.3292-1.2289 5.0324-4.9235 3.8044-8.253zm-18.208 2.1207v0.01c-3e-3 2.1963-1.7863 3.9741-3.9825 3.971-2.1963 0-3.9741-1.7863-3.9709-3.9826 3e-3 -2.1963 1.7863-3.9741 3.9825-3.9709 2.1924 0.01 3.9674 1.7837 3.9709 3.9761zm-1.3689 0c-3e-3 -1.4399-1.1724-2.6049-2.6123-2.602-1.4399 0-2.6049 1.1724-2.602 2.6123 3e-3 1.4399 1.1724 2.6049 2.6123 2.602 1.4367-0.01 2.5989-1.1709 2.6021-2.6075zm17.503 0c-1e-3 2.1963-1.7825 3.9759-3.9788 3.9747-2.1963 0-3.9758-1.7825-3.9747-3.9788 1e-3 -2.1963 1.7825-3.9758 3.9788-3.9747 2.1942 0 3.9718 1.782 3.9747 3.9762zm-1.3684 0c-4.2e-4 -1.4399-1.1682-2.6068-2.6081-2.6063-1.4399 0-2.6068 1.1682-2.6063 2.6081 4.3e-4 1.4399 1.1682 2.6067 2.6081 2.6063 1.4388 0 2.6044-1.1687 2.6063-2.6076z"/>
   <path d="m50.075 182.62h-25.32c-1.2789 0-1.6028 0.3295-1.6028 1.6139v21.791c0 1.3012 0.3239 1.6139 1.6028 1.6139h25.32c1.3626 0 1.6698-0.2904 1.6698-1.6586v-21.674c0-1.3738-0.30157-1.6865-1.6698-1.6865zm-16.96 10.516c-1.5357-1.1281-4.0264-0.4858-4.7022 1.3068-0.24014 0.6199-0.51936 0.5305-0.97729 0.4635-0.5417-0.084-0.96054-0.1787-1.2565-0.3072-1.6083-0.6366 0.48027-3.0882 1.3906-3.5908 2.2952-1.1951 4.6575-1.2398 6.9974-0.2681 2.2841 0.9382 1.9266 3.3061 1.9266 7.1762 0.15079 1.4408-0.24013 3.2557 0.51937 4.959 0.1061 0.2457 0.0223 0.4412-0.15079 0.5975-0.4691 0.3742-2.1947 0.1229-2.6024-0.4132-0.10611-0.1229-0.10052-0.201-0.2178-0.3462-0.20104-0.2178-0.40767-0.1229-0.66456 0.056-3.2055 2.0328-7.8351 1.1951-8.2092-2.4181-0.17312-1.6363 0.69248-3.1888 2.2115-3.965 2.1333-1.089 6.2658-0.659 6.3664-1.7256 0.0614-0.5696-0.1061-1.1225-0.63105-1.5246zm16.011 12.398c0 0.8432-0.61989 0.5528-0.99405 0.5528h-22.053c-0.41326 0-1.0164 0.2681-0.99405-0.5975 0.0223-0.7763 0.58638-0.5082 0.95496-0.5082 7.3883-0.022 14.771-0.022 22.159 0 0.37975 0 0.92704-0.2457 0.92704 0.5529zm0.21221-19.015v16.251c0 0.3183-0.0391 0.7763-0.45235 0.7763-0.69248-0.022-1.5357 0.3964-2.016-0.3128-0.3239-0.4858-0.43559-0.2234-0.69248-0.067-2.9821 1.6586-7.1538 0.3965-8.064-4.758-0.34066-1.8652-0.0391-3.7472 0.87677-5.5845 0.65897-1.3347 3.1776-4.2498 7.6005-1.7033v-3.965c0-1.4632-6e-3 -1.4632 1.452-1.4632 0.17312 0 0.36858 0.022 0.5417 0 0.56403-0.045 0.75949 0.2458 0.75949 0.7986-6e-3 0.011-6e-3 0.017-6e-3 0.028zm-2.876 12.973c-1.089 2.6582-4.0711 2.4181-5.0261 0.2904-0.84327-1.8597-0.86561-3.8087 0.0223-5.6683 0.91028-1.9043 3.334-1.9937 4.5514-0.268 1.1504 1.6083 0.8321 4.7244 0.45235 5.6459zm-16.463 1.9713c-0.41884-0.073-1.8429-0.1843-1.882-1.5525-0.0223-0.7762 0.43559-1.2844 1.1057-1.4408 1.3626-0.3295 2.7532-0.5528 4.1158-0.8209 0.49703-0.1117 0.41326 0.2457 0.43559 0.5305 0.0782 1.8429-1.4576 3.3061-3.7751 3.2837z"/>
   <path d="m44.114 141.82-1.0611-2.3344h-2.9095l-1.0611 2.3344h-0.95495l3.4736-7.3381 3.4736 7.3381zm-2.513-5.4785-1.0946 2.3735h2.1891zm6.2938 5.7186-3.4736-7.3381h0.95496l2.5186 5.3612 2.5186-5.3612h0.94937zm4.5011-0.2401v-7.098h0.8656v7.098zm11.677-6.4558v6.4558h-0.96613v-6.4558h-2.3008v-0.6422h5.5622v0.6422zm9.7952 2.8426c0 0.5137-0.0949 0.994-0.28481 1.4408-0.18987 0.4467-0.45793 0.8432-0.793 1.1783s-0.73157 0.6031-1.1783 0.793c-0.44677 0.1899-0.92703 0.2848-1.4408 0.2848s-0.99404-0.095-1.4408-0.2848c-0.44677-0.1899-0.84327-0.4579-1.1783-0.793s-0.60313-0.726-0.793-1.1783c-0.18987-0.4468-0.28481-0.9271-0.28481-1.4408 0-0.5138 0.0949-0.9941 0.28481-1.4408 0.18987-0.4468 0.45793-0.8433 0.793-1.1784 0.33507-0.335 0.72599-0.4691 1.1783-0.6645 0.44676-0.1899 0.92702-0.2849 1.4408-0.2849s0.99404 0.095 1.4408 0.2849c0.44676 0.1898 0.84326 0.3239 1.1783 0.6645 0.33507 0.3351 0.59754 0.7316 0.793 1.1784 0.18987 0.4467 0.28481 0.927 0.28481 1.4408zm-0.8656 0c0-0.4077-0.0726-0.7819-0.21779-1.1337-0.1452-0.3518-0.34624-0.6534-0.60313-0.9103s-0.55846-0.4579-0.90469-0.6087c-0.34624-0.1508-0.71482-0.2234-1.1057-0.2234s-0.75949 0.073-1.1057 0.2234c-0.34624 0.1508-0.64781 0.3518-0.9047 0.6087-0.25688 0.2569-0.45793 0.5585-0.60312 0.9103-0.1452 0.3518-0.2178 0.7316-0.2178 1.1337 0 0.4076 0.0726 0.7818 0.2178 1.1336 0.14519 0.3518 0.34624 0.6534 0.60312 0.9103 0.25689 0.2569 0.55846 0.4579 0.9047 0.6087s0.71481 0.2234 1.1057 0.2234 0.7595-0.073 1.1057-0.2234c0.34623-0.1508 0.6478-0.3518 0.90469-0.6087s0.45793-0.5585 0.60313-0.9103c0.14519-0.3518 0.21779-0.7316 0.21779-1.1336zm-5.2941 5.4002v-0.3518l4.9646-0.5585-13.565 0.7483c0.0335-0.1228 0.0614-0.2568 0.0782-0.402 0.0168-0.1117 0.0279-0.2346 0.0335-0.363l3.6188-0.4524-3.6244 0.1061c0-0.022-6e-3 -0.039-6e-3 -0.061-0.15637-0.9605-1.424-1.3235-1.424-1.3235l-0.0614-1.4688h1.3291l1.0611 2.3344h0.95496l-3.4736-7.3381-3.4736 7.3381h0.95495l1.0611-2.3344h1.3179l-0.0614 1.4743s-1.2677 0.363-1.424 1.3236c-6e-3 0.017-6e-3 0.039-6e-3 0.061l-3.6244-0.1061 3.6188 0.4523c6e-3 0.1285 0.0168 0.2458 0.0335 0.363 0.0168 0.1452 0.0447 0.2793 0.0782 0.4021l-13.565-0.7539 4.9646 0.5585v0.3518c-0.32949 0.05-0.58638 0.3351-0.58638 0.6813 0 0.3798 0.31273 0.6925 0.69248 0.6925s0.69248-0.3127 0.69248-0.6925c0-0.3462-0.25689-0.631-0.58637-0.6813v-0.3239l4.4844 0.5026v0.3016c-0.31832 0.061-0.55287 0.3462-0.55287 0.6757 0 0.3797 0.31273 0.5696 0.69248 0.5696 0.37974 0 0.69248-0.1899 0.69248-0.5696 0-0.3351-0.24014-0.6143-0.55287-0.6757v-0.2737l1.586 0.1787v1.3236h-0.32948v0.7762h0.32948v-0.3686h0.27923v0.3686h0.32949v-0.7707h-0.32949v-1.2956l2.1389 0.2402c0.45235 0.6366 1.0611 0.7595 1.0611 0.7595l-6e-3 0.3741-0.28481 0.011-6e-3 0.6757h0.22897l6e-3 -0.2792h0.2904l6e-3 0.2792h0.22897l-6e-3 -0.6757-0.28481-0.011-6e-3 -0.3741s0.60871-0.1173 1.0611-0.7595l2.1389-0.2402v1.2956h-0.32949v0.7707h0.32949v-0.3686h0.27922v0.3686h0.32949v-0.7707h-0.32949v-1.3235l1.586-0.1787v0.2736c-0.31832 0.062-0.55287 0.3463-0.55287 0.6758 0 0.3797 0.31273 0.5696 0.69248 0.5696s0.69248-0.1899 0.69248-0.5696c0-0.3351-0.24013-0.6143-0.55287-0.6758v-0.3015l4.4844-0.5026v0.3239c-0.32949 0.05-0.58637 0.3351-0.58637 0.6813 0 0.3797 0.31273 0.6925 0.69248 0.6925s0.69248-0.3128 0.69248-0.6925c-0.0112-0.3518-0.26248-0.6366-0.59755-0.6869zm-11.214-4.892 1.0946-2.3735 1.0946 2.3735h-0.99962l-0.0949-2.2506-0.0949 2.2506z"/>
  </g>
  <path d="m172.19 222.06h3.4626l-1.7313-4.9859zm18.22-1.499c-1.2394 0-2.2484 1.009-2.2484 2.2484 0 1.2395 1.009 2.2484 2.2484 2.2484 1.2395 0 2.2484-1.009 2.2484-2.2484 0-1.2394-1.009-2.2484-2.2484-2.2484zm10.493-17.988h-38.973c-2.4826 0-4.4969 2.0142-4.4969 4.4969v26.981c0 2.4827 2.0142 4.4969 4.4969 4.4969h38.973c2.4826 0 4.4969-2.0142 4.4969-4.4969v-26.981c0-2.4826-2.0142-4.4969-4.4969-4.4969zm-19.994 26.981h-1.587c-0.63799 0-1.2067-0.40471-1.4165-1.0071l-0.69046-1.9908h-6.5851l-0.6914 1.9908a1.499 1.499 0 0 1-1.4165 1.0071h-1.587c-1.0315 0-1.7547-1.0165-1.4165-1.9908l5.0309-14.486a2.248 2.248 0 0 1 2.1238-1.5102h2.4976a2.2475 2.2475 0 0 1 2.1238 1.5111l5.03 14.486c0.33821 0.97433-0.38505 1.9908-1.4156 1.9908zm16.247-1.499c0 0.82818-0.67077 1.499-1.499 1.499h-1.499c-0.45437 0-0.84691-0.21267-1.1224-0.53213-0.80756 0.34289-1.6948 0.53213-2.625 0.53213-3.7193 0-6.7453-3.026-6.7453-6.7453 0-3.7193 3.026-6.7453 6.7453-6.7453 0.79258 0 1.542 0.16208 2.2484 0.41408v-3.412c0-0.82818 0.67078-1.499 1.499-1.499h1.499c0.82818 0 1.499 0.67078 1.499 1.499z" fill="#e5ff80" stroke-width=".093685"/>
  <path d="m230.14 121.98h-28.346c-9.7527 0-18.228 6.2537-20.357 15.08-2.1492-8.8266-10.604-15.08-20.357-15.08h-28.326c-5.3731 0-9.7325 4.0377-9.7325 9.0144v46.161c0 4.9767 4.3593 9.0144 9.7325 9.0144h18.188c20.722 0 26.906 4.5823 29.866 14.085 0.14194 0.52584 1.0544 0.52584 1.2166 0 2.9806-9.5027 9.1647-14.085 29.866-14.085h18.188c5.3731 0 9.7325-4.0377 9.7325-9.0144v-46.142c0-4.9579-4.3188-8.9956-9.6716-9.0332zm-58.05 49.842c0 0.35683-0.30413 0.6573-0.70965 0.6573h-32.502c-0.38524 0-0.70966-0.2817-0.70966-0.6573v-4.3006c0-0.35682 0.30414-0.6573 0.70966-0.6573h32.523c0.38524 0 0.70965 0.28169 0.70965 0.6573v4.3006zm0-11.437c0 0.35682-0.30413 0.6573-0.70965 0.6573h-32.502c-0.38524 0-0.70966-0.2817-0.70966-0.6573v-4.3006c0-0.35682 0.30414-0.65729 0.70966-0.65729h32.523c0.38524 0 0.70965 0.28169 0.70965 0.65729v4.3006zm0-11.437c0 0.35681-0.30413 0.6573-0.70965 0.6573h-32.502c-0.38524 0-0.70966-0.2817-0.70966-0.6573v-4.3006c0-0.35681 0.30414-0.65729 0.70966-0.65729h32.523c0.38524 0 0.70965 0.2817 0.70965 0.65729v4.3006zm52.576 22.855c0 0.35682-0.30413 0.6573-0.70965 0.6573h-32.502c-0.38524 0-0.70965-0.28169-0.70965-0.6573v-4.3006c0-0.35683 0.30413-0.6573 0.70965-0.6573h32.523c0.38525 0 0.70966 0.2817 0.70966 0.6573v4.3006zm0-11.437c0 0.35681-0.30413 0.65729-0.70965 0.65729h-32.502c-0.38524 0-0.70965-0.2817-0.70965-0.65729v-4.3006c0-0.35682 0.30413-0.6573 0.70965-0.6573h32.523c0.38525 0 0.70966 0.2817 0.70966 0.6573v4.3006zm0-11.437c0 0.35682-0.30413 0.65729-0.70965 0.65729h-32.502c-0.38524 0-0.70965-0.2817-0.70965-0.65729v-4.2818c0-0.35681 0.30413-0.65729 0.70965-0.65729h32.523c0.38525 0 0.70966 0.2817 0.70966 0.65729v4.2818z" fill="#80b3ff" stroke-width=".19514"/>
  <rect x="108.67" y="127.21" width="6.4438" height="164.15" rx="2.3017" ry="2.0783" fill="#cfa"/>
  <path d="m198.76 260.82 10.634-11.592c2.0963-2.0672 0.61155-5.6028-2.3538-5.6028h-50.492c-2.9653 0-4.4501 3.5355-2.3537 5.6028l19.194 20.924v16.157c0 1.3046 0.62312 2.5325 1.6812 3.3159l8.4052 6.2172c2.1919 1.6206 5.0931 0.72223 6.2227-1.4061-3.8259-3.6236-6.2217-8.7042-6.2217-14.336 0-9.3041 6.5201-17.115 15.285-19.28zm4.8903 2.7004c-9.2858 0-16.813 7.4224-16.813 16.579 0 9.157 7.5268 16.579 16.813 16.579 9.2857 0 16.812-7.4224 16.812-16.579 0-9.157-7.5268-16.579-16.812-16.579zm1.6812 24.857v1.6704c0 0.458-0.37619 0.82895-0.84062 0.82895h-1.6813c-0.46446 0-0.84063-0.37095-0.84063-0.82895v-1.688c-1.1863-0.0601-2.3401-0.46838-3.2963-1.1761-0.40979-0.30361-0.43082-0.90875-0.06-1.258l1.2347-1.1616c0.29108-0.27357 0.72399-0.28599 1.0644-0.0756 0.40665 0.25076 0.86796 0.38547 1.3471 0.38547h2.9537c0.683 0 1.2399-0.61343 1.2399-1.3668 0-0.61654-0.37935-1.1595-0.92155-1.3191l-4.7285-1.3989c-1.9534-0.57821-3.3184-2.4268-3.3184-4.4961 0-2.5408 2.0017-4.6049 4.4837-4.6702v-1.6704c0-0.458 0.37619-0.82897 0.84063-0.82897h1.6812c0.46446 0 0.84063 0.37097 0.84063 0.82897v1.688c1.1863 0.0601 2.3401 0.46734 3.2963 1.1761 0.40981 0.3036 0.43082 0.90873 0.06 1.258l-1.2347 1.1616c-0.29107 0.27356-0.72398 0.286-1.0644 0.0756-0.40667-0.2518-0.86794-0.38546-1.3471-0.38546h-2.9538c-0.68301 0-1.2399 0.61343-1.2399 1.3668 0 0.61653 0.37933 1.1595 0.92153 1.3191l4.7285 1.3989c1.9534 0.57822 3.3184 2.4268 3.3184 4.4961 0 2.5418-2.0007 4.6049-4.4837 4.6702z" fill="#2aff80" stroke-width=".10435"/>
 </g>
</svg>
