<?xml version="1.0" encoding="UTF-8" standalone="no"?>
<!-- Created with Inkscape (http://www.inkscape.org/) -->

<svg
   xmlns:dc="http://purl.org/dc/elements/1.1/"
   xmlns:cc="http://creativecommons.org/ns#"
   xmlns:rdf="http://www.w3.org/1999/02/22-rdf-syntax-ns#"
   xmlns:svg="http://www.w3.org/2000/svg"
   xmlns="http://www.w3.org/2000/svg"
   xmlns:sodipodi="http://sodipodi.sourceforge.net/DTD/sodipodi-0.dtd"
   xmlns:inkscape="http://www.inkscape.org/namespaces/inkscape"
   width="240mm"
   height="175mm"
   viewBox="0 0 240 175"
   version="1.1"
   id="svg1553"
   inkscape:version="0.92.3 (2405546, 2018-03-11)"
   sodipodi:docname="feature-adverts.svg">
  <defs
     id="defs1547" />
  <sodipodi:namedview
     id="base"
     pagecolor="#ffffff"
     bordercolor="#666666"
     borderopacity="1.0"
     inkscape:pageopacity="0.0"
     inkscape:pageshadow="2"
     inkscape:zoom="0.7328125"
     inkscape:cx="480.38685"
     inkscape:cy="341.66311"
     inkscape:document-units="mm"
     inkscape:current-layer="layer1"
     showgrid="false"
     inkscape:window-width="1366"
     inkscape:window-height="704"
     inkscape:window-x="0"
     inkscape:window-y="27"
     inkscape:window-maximized="1" />
  <metadata
     id="metadata1550">
    <rdf:RDF>
      <cc:Work
         rdf:about="">
        <dc:format>image/svg+xml</dc:format>
        <dc:type
           rdf:resource="http://purl.org/dc/dcmitype/StillImage" />
        <dc:title></dc:title>
      </cc:Work>
    </rdf:RDF>
  </metadata>
  <g
     inkscape:label="Layer 1"
     inkscape:groupmode="layer"
     id="layer1"
     transform="translate(0,-122)">
    <g
       id="g1934"
       inkscape:export-filename="/home/jseto/programing-projects/web/web-wish-to-go/src/images/feature-adverts.png"
       inkscape:export-xdpi="22.66"
       inkscape:export-ydpi="22.66">
      <g
         style="fill:#ff5555"
         transform="matrix(1.1262775,0,0,0.95376065,-4.9745336,5.3821631)"
         id="g1772">
        <path
           id="path1716"
           d="M 89.816849,222.10143 H 7.5184293 a 3.1653236,4.1673881 0 0 0 -3.1653242,4.16739 v 8.33478 a 3.1653236,4.1673881 0 0 0 3.1653242,4.16738 H 89.816849 a 3.1653236,4.1673881 0 0 0 3.165321,-4.16738 v -8.33478 a 3.1653236,4.1673881 0 0 0 -3.165321,-4.16739 z m 0,-33.33911 H 7.5184293 a 3.1653236,4.1673881 0 0 0 -3.1653242,4.16739 v 8.33478 a 3.1653236,4.1673881 0 0 0 3.1653242,4.16738 H 89.816849 a 3.1653236,4.1673881 0 0 0 3.165321,-4.16738 v -8.33478 a 3.1653236,4.1673881 0 0 0 -3.165321,-4.16739 z m 0,-33.3391 H 7.5184293 a 3.1653236,4.1673881 0 0 0 -3.1653242,4.16739 v 8.33477 a 3.1653236,4.1673881 0 0 0 3.1653242,4.1674 H 89.816849 a 3.1653236,4.1673881 0 0 0 3.165321,-4.1674 v -8.33477 a 3.1653236,4.1673881 0 0 0 -3.165321,-4.16739 z m 0,-33.3391 H 7.5184293 a 3.1653236,4.1673881 0 0 0 -3.1653242,4.16738 v 8.33478 a 3.1653236,4.1673881 0 0 0 3.1653242,4.16739 H 89.816849 a 3.1653236,4.1673881 0 0 0 3.165321,-4.16739 v -8.33478 a 3.1653236,4.1673881 0 0 0 -3.165321,-4.16738 z"
           inkscape:connector-curvature="0"
           style="fill:#ff5555;stroke-width:0.22699748" />
        <path
           style="fill:#ff5555;stroke-width:0.22699748"
           inkscape:connector-curvature="0"
           d="M 89.816849,288.77965 H 7.5184293 a 3.1653236,4.1673881 0 0 0 -3.1653242,4.16739 v 8.33478 a 3.1653236,4.1673881 0 0 0 3.1653242,4.16738 H 89.816849 a 3.1653236,4.1673881 0 0 0 3.165321,-4.16738 v -8.33478 a 3.1653236,4.1673881 0 0 0 -3.165321,-4.16739 z m 0,-33.33911 H 7.5184293 a 3.1653236,4.1673881 0 0 0 -3.1653242,4.16739 v 8.33478 a 3.1653236,4.1673881 0 0 0 3.1653242,4.16738 H 89.816849 a 3.1653236,4.1673881 0 0 0 3.165321,-4.16738 v -8.33478 a 3.1653236,4.1673881 0 0 0 -3.165321,-4.16739 z m 0,-33.33911 H 7.5184293 a 3.1653236,4.1673881 0 0 0 -3.1653242,4.1674 v 8.33477 a 3.1653236,4.1673881 0 0 0 3.1653242,4.16739 H 89.816849 a 3.1653236,4.1673881 0 0 0 3.165321,-4.16739 v -8.33477 a 3.1653236,4.1673881 0 0 0 -3.165321,-4.1674 z m 0,-33.33909 H 7.5184293 a 3.1653236,4.1673881 0 0 0 -3.1653242,4.16738 v 8.33478 a 3.1653236,4.1673881 0 0 0 3.1653242,4.16739 H 89.816849 a 3.1653236,4.1673881 0 0 0 3.165321,-4.16739 v -8.33478 a 3.1653236,4.1673881 0 0 0 -3.165321,-4.16738 z"
           id="path1760" />
      </g>
      <path
         style="fill:#666666;stroke-width:0.05584518"
         inkscape:connector-curvature="0"
         d="m 42.807492,216.13301 -3.06031,6.1374 -3.0659,-6.1374 h -2.0942 l 0.60872,1.1504 c -0.64222,-1.061 -2.00485,-1.452 -3.535,-1.452 -1.77588,0 -3.79189,0.4859 -3.99293,2.407 h 1.88198 c 0.0782,-0.7707 0.87677,-1.2175 1.95458,-1.2175 1.45197,0 2.28965,0.5361 2.28965,1.8429 v 0.1899 c -0.70923,0 -1.56366,0.01 -2.32874,0.022 -2.36784,0.05 -3.88683,0.5585 -4.28333,1.9211 0.0559,-0.2904 0.0838,-0.5919 0.0838,-0.9047 0,-2.9095 -2.21705,-4.2554 -4.21073,-4.2554 -1.1895,0 -2.40134,0.3072 -3.27811,1.3515 v -4.5012 h -1.79263 v 9.4658 c 0,0.5752 -0.0335,1.2789 -0.0614,1.8485 h 1.75912 c 0.0391,-0.3519 0.0614,-0.7204 0.0614,-1.089 0.7595,0.927 1.97692,1.3906 3.27811,1.3906 2.06069,0 3.62436,-1.2231 4.09346,-3.0269 -0.0279,0.1564 -0.0391,0.3239 -0.0391,0.5026 0,1.3459 1.17834,2.5131 3.38423,2.5131 1.48548,0 2.5577,-0.3183 3.45681,-1.4241 0,0.3686 0.0168,0.7428 0.0614,1.1281 h 1.66419 c -0.0391,-0.4579 -0.0558,-0.9773 -0.0558,-1.4967 v -3.6634 c 0,-0.5194 -0.0949,-0.9605 -0.26805,-1.3291 l 3.43447,6.4836 -1.59158,3.0212 h 2.00484 l 5.53984,-10.8786 z m -20.23271,6.9415 c -1.65301,0 -2.80343,-1.2006 -2.80343,-3.0044 0,-1.8094 1.15042,-3.0045 2.80343,-3.0045 1.66419,0 2.80343,1.1951 2.80343,3.0045 0,1.8038 -1.13924,3.0044 -2.80343,3.0044 z m 11.2193,-2.6414 c 0,1.6753 -0.99963,2.7029 -2.88161,2.7029 -1.40171,0 -1.95458,-0.7483 -1.95458,-1.4408 0,-1.0667 1.0108,-1.3626 2.63589,-1.4129 0.73157,-0.028 1.54133,-0.034 2.2003,-0.034 z m -23.00263,0.089 h 7.19286 v -0.4747 c 0,-2.8871 -1.84848,-4.2107 -4.37826,-4.2107 -3.17201,0 -4.6351507,1.72 -4.6351507,4.3336 0,2.3734 1.4128807,4.1326 4.6072207,4.1326 1.75354,0 3.79748,-0.6535 4.15489,-2.5745 h -1.84848 c -0.67014,1.9992 -4.89762,2.0495 -5.09308,-1.2063 z m 5.30529,-1.1951 h -5.27178 c 0.38533,-3.1608 5.14334,-3.0547 5.27178,0 z"
         id="path1573" />
      <path
         style="fill:#666666;stroke-width:0.05584518"
         inkscape:connector-curvature="0"
         d="m 80.396052,154.32938 h -19.6575 a 2.680569,2.680569 0 0 0 -2.68057,2.6806 v 19.6575 a 2.680569,2.680569 0 0 0 2.68057,2.6806 h 7.66475 v -8.5058 h -3.51825 v -4.0036 h 3.51825 v -3.0514 c 0,-3.4707 2.06627,-5.3879 5.23102,-5.3879 1.51564,0 3.10052,0.2703 3.10052,0.2703 v 3.4066 h -1.74628 c -1.72059,0 -2.25726,1.0677 -2.25726,2.1628 v 2.5996 h 3.84103 l -0.61429,4.0036 h -3.22674 v 8.5058 h 7.66475 a 2.680569,2.680569 0 0 0 2.68057,-2.6806 v -19.6575 a 2.680569,2.680569 0 0 0 -2.68057,-2.6806 z"
         id="path1617" />
      <path
         style="fill:#666666;stroke-width:0.05584518"
         inkscape:connector-curvature="0"
         d="m 66.796587,224.14429 c -2.86486,3.9594 -6.51155,6.1877 -8.136652,4.9814 -1.63068,-1.2118 -0.62546,-5.3946 2.244982,-9.3541 2.86486,-3.9594 6.51155,-6.1876 8.13664,-4.9813 1.6251,1.2062 0.61988,5.3946 -2.24497,9.354 z m 19.61283,-3.1999 c -4.12138,6.8913 -10.71669,10.4821 -14.77106,8.0194 -1.39612,-0.8489 -2.3064,-2.3009 -2.73641,-4.1214 -1.8764,3.6188 -5.18243,6.3552 -9.1642,7.4386 2.7811,3.3116 6.93039,5.4114 11.55996,5.4114 8.37678,0 15.16755,-6.8746 15.16755,-15.3519 0.006,-0.4747 -0.0168,-0.9382 -0.0558,-1.3961 z"
         id="path1639" />
      <path
         style="fill:#666666;stroke-width:0.05584518"
         inkscape:connector-curvature="0"
         d="m 28.305095,259.86205 c -1.40953,-1.7686 -2.23827,-3.3188 -2.51303,-4.6452 -1.25931,-4.9143 6.288729,-4.9143 5.02942,0 -0.30436,1.3543 -1.1331,2.904 -2.51303,4.6452 z m 7.715019,4.0896 c -2.34885,1.0225 -4.672569,-0.6076 -6.662329,-2.8185 5.802309,-7.2638 2.575019,-11.1691 -1.05269,-11.1691 -3.06701,0 -4.75577,2.5974 -4.09233,5.6125 0.38701,1.6301 1.40897,3.4842 3.03965,5.5566 -1.81664,2.0132 -3.38142,2.9425 -4.75522,3.067 -2.792248,0.4149 -4.976358,-2.293 -3.981758,-5.0869 0.84327,-2.1869 6.239028,-12.9103 6.470778,-13.49 0.87957,-1.6793 1.42741,-3.2055 3.31609,-3.2055 1.80604,0 2.42368,1.4486 3.371379,3.3434 2.01042,3.9438 4.98976,9.9114 6.41326,13.3521 0.73548,1.8468 -0.0765,3.9812 -2.06683,4.8384 z m 2.62472,-7.6017 c -7.197329,-15.3183 -7.596059,-15.5378 -10.339739,-15.5378 -2.54207,0 -3.62267,1.7687 -4.72785,4.065 -5.928518,11.8565 -6.503168,13.5369 -6.552868,13.6832 -1.40842,3.8717 1.4933,7.2705 5.005398,7.2705 1.2124,0 3.38478,-0.3384 6.27532,-3.4848 3.277,3.5619 5.654889,3.4848 6.275329,3.4848 3.5121,0 6.41382,-3.3988 5.00428,-7.2705 10e-4,-0.2172 -0.93931,-2.1724 -0.93931,-2.2104 z"
         id="path1650" />
      <path
         style="fill:#666666;stroke-width:0.05584518"
         inkscape:connector-curvature="0"
         d="m 67.803937,268.34889 c -2.71966,0.1005 -9.46576,0.8656 -9.46576,6.5618 0,6.115 7.72339,6.3663 10.24759,2.4125 0.362989,0.5696 1.976919,2.0942 2.529789,2.6136 l 3.172,-3.1274 c 0,0 -1.80379,-1.4128 -1.80379,-2.9486 v -8.2148 c 0,-1.4129 -1.36821,-4.5961 -6.271419,-4.5961 -4.91437,0 -7.52235,3.0715 -7.52235,5.8247 l 4.10463,0.3797 c 0.91027,-2.7643 3.02681,-2.7643 3.02681,-2.7643 2.27289,-0.01 1.9825,1.6642 1.9825,3.8589 z m 0,4.8473 c 0,4.4676 -4.70217,3.7975 -4.70217,0.9606 0,-2.6359 2.82019,-3.1665 4.70217,-3.2279 z m 7.594939,9.1307 c -0.43001,0.5585 -3.90916,3.7417 -9.744979,3.7417 -5.83582,0 -10.30344,-3.993 -11.67164,-5.6404 -0.37975,-0.43 0.0558,-0.6311 0.30714,-0.4635 4.09346,2.4851 10.48773,6.5785 20.802339,1.6921 0.41883,-0.2066 0.74274,0.1117 0.30714,0.6701 z m 2.22264,0.1229 c -0.36299,0.8824 -0.89352,1.4966 -1.18391,1.7312 -0.30715,0.2513 -0.53054,0.1508 -0.363,-0.2122 0.16754,-0.363 1.07781,-2.5968 0.70923,-3.0715 -0.36299,-0.4635 -2.06627,-0.2401 -2.68057,-0.1787 -0.60312,0.056 -0.72598,0.1117 -0.78183,-0.017 -0.12844,-0.3183 1.21184,-0.8656 2.0942,-0.9773 0.87677,-0.1005 2.28965,-0.045 2.56887,0.3183 0.20663,0.2848 0,1.5135 -0.36299,2.407 z"
         id="path1672" />
      <path
         inkscape:transform-center-y="-6.7261477"
         inkscape:transform-center-x="16.258121"
         style="fill:#666666;stroke-width:0.05584518"
         inkscape:connector-curvature="0"
         d="m 19.124773,157.53919 c 0,0.7392 -0.59922,1.3384 -1.33839,1.3384 -0.73916,0 -1.33838,-0.5992 -1.33838,-1.3384 0,-0.7392 0.59922,-1.3384 1.33838,-1.3384 0.73917,0 1.33839,0.5992 1.33839,1.3384 z m 14.79685,-1.3378 c -0.73883,0 -1.33783,0.5989 -1.33783,1.3378 0,0.7388 0.59894,1.3378 1.33783,1.3378 0.73883,0 1.33783,-0.5989 1.33783,-1.3378 -6e-5,-0.7389 -0.599,-1.3378 -1.33783,-1.3378 z m 4.99189,7.7898 c -3.49965,2.7422 -8.55973,2.1282 -11.30189,-1.3715 l -1.73003,2.587 -1.7135,-2.5654 c -2.69604,3.3725 -7.57383,4.0147 -11.05092,1.455 -3.57733,-2.6335 -4.34247,-7.6684 -1.70892,-11.2458 a 10.429759,10.429759 0 0 0 -1.5761202,-3.1914 h 5.0420402 a 20.019382,20.019382 0 0 1 11.00513,-3.0173 19.567148,19.567148 0 0 1 10.73238,2.9793 h 5.37332 a 10.371177,10.371177 0 0 0 -1.58333,3.2194 c 2.61317,3.5041 1.95257,8.4533 -1.48816,11.1493 z m -14.59704,-6.3828 c -4.2e-4,-3.5493 -2.87798,-6.4264 -6.42733,-6.426 -3.54935,0 -6.42633,2.878 -6.426,6.4274 4.3e-4,3.5493 2.87799,6.4264 6.42734,6.426 3.54689,0 6.4213,-2.8782 6.42599,-6.4251 z m 1.59667,-0.5838 c 0.30341,-4.1013 3.65842,-7.3093 7.76919,-7.4287 a 18.939672,18.939672 0 0 0 -7.80309,-1.5531 19.898198,19.898198 0 0 0 -7.82748,1.5219 c 4.15176,0.088 7.5558,3.3186 7.86138,7.4599 z m 14.05657,-1.6065 c -1.22815,-3.3303 -4.92342,-5.0344 -8.25364,-3.8063 -3.33027,1.2282 -5.03433,4.9235 -3.80624,8.2537 v 0 c 1.23072,3.3288 4.92544,5.0311 8.25543,3.8038 3.32921,-1.2289 5.03237,-4.9235 3.80445,-8.253 z m -18.20771,2.1207 v 0.01 c -0.003,2.1963 -1.78626,3.9741 -3.98254,3.971 -2.19628,0 -3.97411,-1.7863 -3.97093,-3.9826 0.003,-2.1963 1.78626,-3.9741 3.98254,-3.9709 2.19243,0.01 3.96736,1.7837 3.97093,3.9761 z m -1.36888,0 v 0 c -0.003,-1.4399 -1.17241,-2.6049 -2.61232,-2.602 -1.43991,0 -2.6049,1.1724 -2.60205,2.6123 0.003,1.4399 1.17241,2.6049 2.61227,2.602 1.43667,-0.01 2.59887,-1.1709 2.6021,-2.6075 z m 17.50317,0 v 0 c -10e-4,2.1963 -1.78247,3.9759 -3.9788,3.9747 -2.19634,0 -3.97584,-1.7825 -3.97467,-3.9788 10e-4,-2.1963 1.78247,-3.9758 3.9788,-3.9747 2.19416,0 3.97177,1.782 3.97467,3.9762 z m -1.36843,0 c -4.2e-4,-1.4399 -1.16817,-2.6068 -2.60808,-2.6063 -1.43991,0 -2.6068,1.1682 -2.6063,2.6081 4.3e-4,1.4399 1.16817,2.6067 2.60809,2.6063 1.43885,0 2.60439,-1.1687 2.60629,-2.6076 z"
         id="path1683" />
      <path
         style="fill:#666666;stroke-width:0.05584518"
         inkscape:connector-curvature="0"
         d="m 50.075443,182.62374 h -25.3202 c -1.27886,0 -1.60276,0.3295 -1.60276,1.6139 v 21.7908 c 0,1.3012 0.3239,1.6139 1.60276,1.6139 h 25.3202 c 1.36263,0 1.66978,-0.2904 1.66978,-1.6586 v -21.6735 c 0,-1.3738 -0.30157,-1.6865 -1.66978,-1.6865 z m -16.96018,10.5156 c -1.53574,-1.1281 -4.02644,-0.4858 -4.70216,1.3068 -0.24014,0.6199 -0.51936,0.5305 -0.97729,0.4635 -0.5417,-0.084 -0.96054,-0.1787 -1.25652,-0.3072 -1.60834,-0.6366 0.48027,-3.0882 1.39055,-3.5908 2.29523,-1.1951 4.65748,-1.2398 6.9974,-0.2681 2.28407,0.9382 1.92665,3.3061 1.92665,7.1762 0.15079,1.4408 -0.24013,3.2557 0.51937,4.959 0.1061,0.2457 0.0223,0.4412 -0.15079,0.5975 -0.4691,0.3742 -2.19471,0.1229 -2.60238,-0.4132 -0.10611,-0.1229 -0.10052,-0.201 -0.2178,-0.3462 -0.20104,-0.2178 -0.40767,-0.1229 -0.66456,0.056 -3.20551,2.0328 -7.83508,1.1951 -8.20924,-2.4181 -0.17312,-1.6363 0.69248,-3.1888 2.21147,-3.965 2.13329,-1.089 6.26583,-0.659 6.36635,-1.7256 0.0614,-0.5696 -0.1061,-1.1225 -0.63105,-1.5246 z m 16.01082,12.3977 c 0,0.8432 -0.61989,0.5528 -0.99405,0.5528 h -22.05326 c -0.41326,0 -1.01639,0.2681 -0.99405,-0.5975 0.0223,-0.7763 0.58638,-0.5082 0.95496,-0.5082 7.38832,-0.022 14.77105,-0.022 22.15936,0 0.37975,0 0.92704,-0.2457 0.92704,0.5529 z m 0.21221,-19.0154 v 16.251 c 0,0.3183 -0.0391,0.7763 -0.45235,0.7763 -0.69248,-0.022 -1.53574,0.3964 -2.01601,-0.3128 -0.3239,-0.4858 -0.43559,-0.2234 -0.69248,-0.067 -2.98213,1.6586 -7.15377,0.3965 -8.06404,-4.758 -0.34066,-1.8652 -0.0391,-3.7472 0.87677,-5.5845 0.65897,-1.3347 3.17759,-4.2498 7.60052,-1.7033 v -3.965 c 0,-1.4632 -0.006,-1.4632 1.45198,-1.4632 0.17312,0 0.36858,0.022 0.5417,0 0.56403,-0.045 0.75949,0.2458 0.75949,0.7986 -0.006,0.011 -0.006,0.017 -0.006,0.028 z m -2.87603,12.9729 c -1.08898,2.6582 -4.07111,2.4181 -5.02606,0.2904 -0.84327,-1.8597 -0.86561,-3.8087 0.0223,-5.6683 0.91028,-1.9043 3.33396,-1.9937 4.55138,-0.268 1.15041,1.6083 0.8321,4.7244 0.45235,5.6459 z m -16.46316,1.9713 c -0.41884,-0.073 -1.84289,-0.1843 -1.88198,-1.5525 -0.0223,-0.7762 0.43559,-1.2844 1.10573,-1.4408 1.36263,-0.3295 2.75317,-0.5528 4.11579,-0.8209 0.49703,-0.1117 0.41326,0.2457 0.43559,0.5305 0.0782,1.8429 -1.45755,3.3061 -3.77513,3.2837 z"
         id="path1694" />
      <path
         style="fill:#666666;stroke-width:0.05584518"
         inkscape:connector-curvature="0"
         d="m 44.113664,141.8169 -1.06106,-2.3344 h -2.90954 l -1.06106,2.3344 h -0.95495 l 3.47357,-7.3381 3.47357,7.3381 z m -2.51304,-5.4785 -1.09456,2.3735 h 2.18913 z m 6.29375,5.7186 -3.47357,-7.3381 h 0.95496 l 2.51861,5.3612 2.51862,-5.3612 h 0.94937 z m 4.50113,-0.2401 v -7.098 h 0.8656 v 7.098 z m 11.677226,-6.4558 v 6.4558 H 63.1066 v -6.4558 h -2.30082 v -0.6422 h 5.56218 v 0.6422 z m 9.79524,2.8426 c 0,0.5137 -0.0949,0.994 -0.28481,1.4408 -0.18987,0.4467 -0.45793,0.8432 -0.793,1.1783 -0.33507,0.3351 -0.73157,0.6031 -1.17833,0.793 -0.44677,0.1899 -0.92703,0.2848 -1.44081,0.2848 -0.51378,0 -0.99404,-0.095 -1.4408,-0.2848 -0.44677,-0.1899 -0.84327,-0.4579 -1.17834,-0.793 -0.33507,-0.3351 -0.60313,-0.726 -0.793,-1.1783 -0.18987,-0.4468 -0.28481,-0.9271 -0.28481,-1.4408 0,-0.5138 0.0949,-0.9941 0.28481,-1.4408 0.18987,-0.4468 0.45793,-0.8433 0.793,-1.1784 0.33507,-0.335 0.72599,-0.4691 1.17834,-0.6645 0.44676,-0.1899 0.92702,-0.2849 1.4408,-0.2849 0.51378,0 0.99404,0.095 1.44081,0.2849 0.44676,0.1898 0.84326,0.3239 1.17833,0.6645 0.33507,0.3351 0.59754,0.7316 0.793,1.1784 0.18987,0.4467 0.28481,0.927 0.28481,1.4408 z m -0.8656,0 c 0,-0.4077 -0.0726,-0.7819 -0.21779,-1.1337 -0.1452,-0.3518 -0.34624,-0.6534 -0.60313,-0.9103 -0.25689,-0.2569 -0.55846,-0.4579 -0.90469,-0.6087 -0.34624,-0.1508 -0.71482,-0.2234 -1.10574,-0.2234 -0.39092,0 -0.75949,0.073 -1.10573,0.2234 -0.34624,0.1508 -0.64781,0.3518 -0.9047,0.6087 -0.25688,0.2569 -0.45793,0.5585 -0.60312,0.9103 -0.1452,0.3518 -0.2178,0.7316 -0.2178,1.1337 0,0.4076 0.0726,0.7818 0.2178,1.1336 0.14519,0.3518 0.34624,0.6534 0.60312,0.9103 0.25689,0.2569 0.55846,0.4579 0.9047,0.6087 0.34624,0.1508 0.71481,0.2234 1.10573,0.2234 0.39092,0 0.7595,-0.073 1.10574,-0.2234 0.34623,-0.1508 0.6478,-0.3518 0.90469,-0.6087 0.25689,-0.2569 0.45793,-0.5585 0.60313,-0.9103 0.14519,-0.3518 0.21779,-0.7316 0.21779,-1.1336 z m -5.29412,5.4002 v -0.3518 l 4.96464,-0.5585 -13.5648,0.7483 c 0.0335,-0.1228 0.0614,-0.2568 0.0782,-0.402 0.0168,-0.1117 0.0279,-0.2346 0.0335,-0.363 l 3.61877,-0.4524 -3.62435,0.1061 c 0,-0.022 -0.006,-0.039 -0.006,-0.061 -0.15637,-0.9605 -1.42405,-1.3235 -1.42405,-1.3235 l -0.0614,-1.4688 h 1.32911 l 1.06106,2.3344 h 0.95496 l -3.47357,-7.3381 -3.47357,7.3381 h 0.95495 l 1.06106,-2.3344 h 1.31794 l -0.0614,1.4743 c 0,0 -1.26768,0.363 -1.42405,1.3236 -0.006,0.017 -0.006,0.039 -0.006,0.061 l -3.624356,-0.1061 3.618766,0.4523 c 0.006,0.1285 0.0168,0.2458 0.0335,0.363 0.0168,0.1452 0.0447,0.2793 0.0782,0.4021 l -13.564786,-0.7539 4.96464,0.5585 v 0.3518 c -0.32949,0.05 -0.58638,0.3351 -0.58638,0.6813 0,0.3798 0.31273,0.6925 0.69248,0.6925 0.37975,0 0.69248,-0.3127 0.69248,-0.6925 0,-0.3462 -0.25689,-0.631 -0.58637,-0.6813 V 143.28 l 4.48437,0.5026 v 0.3016 c -0.31832,0.061 -0.55287,0.3462 -0.55287,0.6757 0,0.3797 0.31273,0.5696 0.69248,0.5696 0.37974,0 0.69248,-0.1899 0.69248,-0.5696 0,-0.3351 -0.24014,-0.6143 -0.55287,-0.6757 v -0.2737 l 1.585996,0.1787 v 1.3236 h -0.32948 v 0.7762 h 0.32948 v -0.3686 h 0.27923 v 0.3686 h 0.32949 v -0.7707 h -0.32949 v -1.2956 l 2.13887,0.2402 c 0.45235,0.6366 1.06106,0.7595 1.06106,0.7595 l -0.006,0.3741 -0.28481,0.011 -0.006,0.6757 h 0.22897 l 0.006,-0.2792 h 0.2904 l 0.006,0.2792 h 0.22897 l -0.006,-0.6757 -0.28481,-0.011 -0.006,-0.3741 c 0,0 0.60871,-0.1173 1.06106,-0.7595 l 2.13887,-0.2402 v 1.2956 h -0.32949 v 0.7707 h 0.32949 v -0.3686 h 0.27922 v 0.3686 h 0.32949 v -0.7707 h -0.32949 v -1.3235 l 1.58601,-0.1787 v 0.2736 c -0.31832,0.062 -0.55287,0.3463 -0.55287,0.6758 0,0.3797 0.31273,0.5696 0.69248,0.5696 0.37975,0 0.69248,-0.1899 0.69248,-0.5696 0,-0.3351 -0.24013,-0.6143 -0.55287,-0.6758 v -0.3015 l 4.48437,-0.5026 v 0.3239 c -0.32949,0.05 -0.58637,0.3351 -0.58637,0.6813 0,0.3797 0.31273,0.6925 0.69248,0.6925 0.37975,0 0.69248,-0.3128 0.69248,-0.6925 -0.0112,-0.3518 -0.26248,-0.6366 -0.59755,-0.6869 z m -11.21372,-4.892 1.09457,-2.3735 1.09456,2.3735 h -0.99962 l -0.0949,-2.2506 -0.0949,2.2506 z"
         id="path1705" />
      <path
         style="fill:#e5ff80;stroke-width:0.09368488"
         inkscape:connector-curvature="0"
         d="m 172.18932,222.05536 h 3.4626 l -1.73131,-4.98591 z m 18.21984,-1.49896 c -1.23945,0 -2.24843,1.00899 -2.24843,2.24843 0,1.23946 1.00898,2.24845 2.24843,2.24845 1.23946,0 2.24844,-1.00899 2.24844,-2.24845 0,-1.23944 -1.00898,-2.24843 -2.24844,-2.24843 z m 10.49272,-17.9875 h -38.97293 c -2.48264,0 -4.49687,2.01423 -4.49687,4.49687 v 26.98125 c 0,2.48266 2.01423,4.49689 4.49687,4.49689 h 38.97293 c 2.48264,0 4.49687,-2.01423 4.49687,-4.49689 v -26.98125 c 0,-2.48264 -2.01423,-4.49687 -4.49687,-4.49687 z m -19.99424,26.98125 h -1.58702 c -0.63799,0 -1.20667,-0.40471 -1.41652,-1.00711 l -0.69046,-1.99081 h -6.5851 l -0.6914,1.99081 a 1.4989583,1.4989583 0 0 1 -1.41652,1.00711 h -1.58702 c -1.03147,0 -1.75472,-1.01648 -1.41651,-1.99081 l 5.03088,-14.48649 a 2.2479691,2.2479691 0 0 1 2.12383,-1.51019 h 2.49764 a 2.2475006,2.2475006 0 0 1 2.12383,1.51113 l 5.02995,14.48555 c 0.33821,0.97433 -0.38505,1.99081 -1.41558,1.99081 z m 16.24683,-1.49896 c 0,0.82818 -0.67077,1.49896 -1.49895,1.49896 h -1.49896 c -0.45437,0 -0.84691,-0.21267 -1.12235,-0.53213 -0.80756,0.34289 -1.69476,0.53213 -2.62505,0.53213 -3.71929,0 -6.74532,-3.02602 -6.74532,-6.74532 0,-3.71928 3.02603,-6.7453 6.74532,-6.7453 0.79258,0 1.54205,0.16208 2.24844,0.41408 v -3.41199 c 0,-0.82818 0.67078,-1.49896 1.49896,-1.49896 h 1.49896 c 0.82818,0 1.49895,0.67078 1.49895,1.49896 z"
         id="path1727" />
      <path
         style="fill:#80b3ff;stroke-width:0.19513628"
         inkscape:connector-curvature="0"
         d="m 230.13854,121.98294 h -28.34579 c -9.75273,0 -18.22808,6.25372 -20.35706,15.08031 -2.14925,-8.82659 -10.60433,-15.08031 -20.35706,-15.08031 h -28.32551 c -5.37314,0 -9.73247,4.03769 -9.73247,9.01437 v 46.16115 c 0,4.97668 4.35933,9.01437 9.73247,9.01437 h 18.18753 c 20.72203,0 26.9062,4.58231 29.86648,14.08497 0.14194,0.52584 1.05436,0.52584 1.21656,0 2.98057,-9.50266 9.16474,-14.08497 29.86649,-14.08497 h 18.18754 c 5.37313,0 9.73246,-4.03769 9.73246,-9.01437 v -46.14237 c 0,-4.9579 -4.31878,-8.9956 -9.67164,-9.03315 z m -58.05007,49.842 c 0,0.35683 -0.30413,0.6573 -0.70965,0.6573 h -32.50237 c -0.38524,0 -0.70966,-0.2817 -0.70966,-0.6573 v -4.3006 c 0,-0.35682 0.30414,-0.6573 0.70966,-0.6573 h 32.52265 c 0.38524,0 0.70965,0.28169 0.70965,0.6573 v 4.3006 z m 0,-11.43699 c 0,0.35682 -0.30413,0.6573 -0.70965,0.6573 h -32.50237 c -0.38524,0 -0.70966,-0.2817 -0.70966,-0.6573 v -4.30061 c 0,-0.35682 0.30414,-0.65729 0.70966,-0.65729 h 32.52265 c 0.38524,0 0.70965,0.28169 0.70965,0.65729 v 4.30061 z m 0,-11.43699 c 0,0.35681 -0.30413,0.6573 -0.70965,0.6573 h -32.50237 c -0.38524,0 -0.70966,-0.2817 -0.70966,-0.6573 v -4.30062 c 0,-0.35681 0.30414,-0.65729 0.70966,-0.65729 h 32.52265 c 0.38524,0 0.70965,0.2817 0.70965,0.65729 v 4.30062 z m 52.57556,22.8552 c 0,0.35682 -0.30413,0.6573 -0.70965,0.6573 h -32.50237 c -0.38524,0 -0.70965,-0.28169 -0.70965,-0.6573 v -4.3006 c 0,-0.35683 0.30413,-0.6573 0.70965,-0.6573 h 32.52264 c 0.38525,0 0.70966,0.2817 0.70966,0.6573 v 4.3006 z m 0,-11.43698 c 0,0.35681 -0.30413,0.65729 -0.70965,0.65729 h -32.50237 c -0.38524,0 -0.70965,-0.2817 -0.70965,-0.65729 v -4.30062 c 0,-0.35682 0.30413,-0.6573 0.70965,-0.6573 h 32.52264 c 0.38525,0 0.70966,0.2817 0.70966,0.6573 v 4.30062 z m 0,-11.437 c 0,0.35682 -0.30413,0.65729 -0.70965,0.65729 h -32.50237 c -0.38524,0 -0.70965,-0.2817 -0.70965,-0.65729 v -4.28184 c 0,-0.35681 0.30413,-0.65729 0.70965,-0.65729 h 32.52264 c 0.38525,0 0.70966,0.2817 0.70966,0.65729 v 4.28184 z"
         id="path1738" />
      <rect
         rx="2.301734"
         ry="2.0782635"
         y="127.20612"
         x="108.66833"
         height="164.14728"
         width="6.4437981"
         id="rect1766"
         style="opacity:1;fill:#ccffaa;fill-opacity:1;stroke:none;stroke-width:2.54200006;stroke-linecap:round;stroke-linejoin:round;stroke-miterlimit:4;stroke-dasharray:none;stroke-opacity:1" />
      <path
         style="fill:#2aff80;stroke-width:0.10434697"
         inkscape:connector-curvature="0"
         d="m 198.76387,260.8246 10.63391,-11.59208 c 2.09631,-2.06722 0.61155,-5.60276 -2.35375,-5.60276 h -50.49217 c -2.96529,0 -4.45006,3.53554 -2.35374,5.60276 l 19.19358,20.92417 v 16.15657 c 0,1.30457 0.62312,2.53249 1.68124,3.31587 l 8.40521,6.21725 c 2.19193,1.62063 5.09314,0.72223 6.22273,-1.40613 -3.8259,-3.62363 -6.22169,-8.70416 -6.22169,-14.33595 0,-9.30411 6.52011,-17.11506 15.28468,-19.2797 z m 4.89034,2.70035 c -9.28575,0 -16.81251,7.42237 -16.81251,16.57935 0,9.15697 7.52676,16.57934 16.81251,16.57934 9.28574,0 16.8125,-7.42237 16.8125,-16.57934 0,-9.15698 -7.52676,-16.57935 -16.8125,-16.57935 z m 1.68125,24.85658 v 1.67038 c 0,0.458 -0.37619,0.82895 -0.84062,0.82895 h -1.68126 c -0.46446,0 -0.84063,-0.37095 -0.84063,-0.82895 v -1.68798 c -1.18634,-0.0601 -2.34008,-0.46838 -3.29631,-1.17611 -0.40979,-0.30361 -0.43082,-0.90875 -0.06,-1.25797 l 1.23467,-1.16158 c 0.29108,-0.27357 0.72399,-0.28599 1.06444,-0.0756 0.40665,0.25076 0.86796,0.38547 1.34712,0.38547 h 2.95374 c 0.683,0 1.23993,-0.61343 1.23993,-1.36677 0,-0.61654 -0.37935,-1.1595 -0.92155,-1.31908 l -4.72851,-1.39888 c -1.95341,-0.57821 -3.31838,-2.42681 -3.31838,-4.49611 0,-2.54079 2.00174,-4.60492 4.48369,-4.6702 v -1.67036 c 0,-0.458 0.37619,-0.82897 0.84063,-0.82897 h 1.68124 c 0.46446,0 0.84063,0.37097 0.84063,0.82897 v 1.68798 c 1.18632,0.0601 2.34009,0.46734 3.2963,1.1761 0.40981,0.3036 0.43082,0.90873 0.06,1.25795 l -1.23469,1.16159 c -0.29107,0.27356 -0.72398,0.286 -1.06442,0.0756 -0.40667,-0.2518 -0.86794,-0.38546 -1.34711,-0.38546 h -2.95375 c -0.68301,0 -1.23992,0.61343 -1.23992,1.36676 0,0.61653 0.37933,1.15952 0.92153,1.31909 l 4.72851,1.39888 c 1.95342,0.57822 3.31837,2.4268 3.31837,4.4961 0,2.54183 -2.00067,4.60493 -4.48368,4.6702 z"
         id="path1776" />
    </g>
  </g>
</svg>
