<?xml version="1.0" encoding="UTF-8" standalone="no"?>
<!-- Created with Inkscape (http://www.inkscape.org/) -->

<svg
   xmlns:dc="http://purl.org/dc/elements/1.1/"
   xmlns:cc="http://creativecommons.org/ns#"
   xmlns:rdf="http://www.w3.org/1999/02/22-rdf-syntax-ns#"
   xmlns:svg="http://www.w3.org/2000/svg"
   xmlns="http://www.w3.org/2000/svg"
   xmlns:sodipodi="http://sodipodi.sourceforge.net/DTD/sodipodi-0.dtd"
   xmlns:inkscape="http://www.inkscape.org/namespaces/inkscape"
   width="210mm"
   height="297mm"
   viewBox="0 0 210 297"
   version="1.1"
   id="svg1383"
   inkscape:version="0.92.3 (2405546, 2018-03-11)"
   sodipodi:docname="feature-wish-list.svg">
  <defs
     id="defs1377" />
  <sodipodi:namedview
     id="base"
     pagecolor="#ffffff"
     bordercolor="#666666"
     borderopacity="1.0"
     inkscape:pageopacity="0.0"
     inkscape:pageshadow="2"
     inkscape:zoom="0.7328125"
     inkscape:cx="-249.47736"
     inkscape:cy="560"
     inkscape:document-units="mm"
     inkscape:current-layer="layer1"
     showgrid="false"
     inkscape:window-width="1366"
     inkscape:window-height="704"
     inkscape:window-x="0"
     inkscape:window-y="27"
     inkscape:window-maximized="1" />
  <metadata
     id="metadata1380">
    <rdf:RDF>
      <cc:Work
         rdf:about="">
        <dc:format>image/svg+xml</dc:format>
        <dc:type
           rdf:resource="http://purl.org/dc/dcmitype/StillImage" />
        <dc:title></dc:title>
      </cc:Work>
    </rdf:RDF>
  </metadata>
  <g
     inkscape:label="Layer 1"
     inkscape:groupmode="layer"
     id="layer1">
    <g
       id="g1354"
       transform="matrix(1.0600851,0,0,1.0600851,-235.00179,-122.14089)">
      <rect
         y="112.23256"
         x="12.2093"
         height="153.43024"
         width="116.39535"
         id="rect1339"
         style="opacity:1;fill:#ffffff;fill-opacity:1;stroke:none;stroke-width:2.54200006;stroke-linecap:round;stroke-linejoin:round;stroke-miterlimit:4;stroke-dasharray:none;stroke-opacity:1" />
      <g
         transform="translate(-19.94186,8.1395353)"
         id="g474">
        <path
           style="fill:#ff9955;stroke-width:0.26458332"
           inkscape:connector-curvature="0"
           d="M 145.7814,94.396724 H 35.714728 c -7.0141,0 -12.7,5.685906 -12.7,12.700006 v 142.78452 c 0,7.0141 5.6859,12.7 12.7,12.7 H 145.7814 c 7.0141,0 12.7,-5.6859 12.7,-12.7 V 107.09673 c 0,-7.0141 -5.6859,-12.700006 -12.7,-12.700006 z M 144.1939,249.88125 H 37.302228 c -0.876752,0 -1.5875,-0.71075 -1.5875,-1.5875 V 108.68423 c 0,-0.87675 0.710748,-1.5875 1.5875,-1.5875 H 144.1939 c 0.87675,0 1.5875,0.71075 1.5875,1.5875 v 139.60952 c 0,0.87675 -0.71075,1.5875 -1.5875,1.5875 z m -11.1125,-24.3417 v 6.35 c 0,1.7534 -1.42161,3.175 -3.175,3.175 H 76.989726 c -1.75339,0 -3.175,-1.4216 -3.175,-3.175 v -6.35 c 0,-1.7534 1.42161,-3.175 3.175,-3.175 H 129.9064 c 1.75339,0 3.175,1.4216 3.175,3.175 z m 0,-25.4 v 6.35 c 0,1.7534 -1.42161,3.175 -3.175,3.175 H 76.989726 c -1.75339,0 -3.175,-1.4216 -3.175,-3.175 v -6.35 c 0,-1.7534 1.42161,-3.175 3.175,-3.175 H 129.9064 c 1.75339,0 3.175,1.4216 3.175,3.175 z m 0,-25.4 v 6.35 c 0,1.7534 -1.42161,3.175 -3.175,3.175 H 76.989726 c -1.75339,0 -3.175,-1.4216 -3.175,-3.175 v -6.35 c 0,-1.7534 1.42161,-3.175 3.175,-3.175 H 129.9064 c 1.75339,0 3.175,1.4216 3.175,3.175 z"
           id="path362"
           sodipodi:nodetypes="sssssssssssssssssssssssssssssssssssssssssssss" />
        <path
           style="fill:#ff9955;stroke-width:0.26458332"
           inkscape:connector-curvature="0"
           d="m 133.0814,149.34824 v 6.35 c 0,1.7534 -1.42161,3.175 -3.175,3.175 H 76.989726 c -1.75339,0 -3.175,-1.4216 -3.175,-3.175 v -6.35 c 0,-1.7534 1.42161,-3.175 3.175,-3.175 H 129.9064 c 1.75339,0 3.175,1.4216 3.175,3.175 z m 0,-25.4 v 6.35 c 0,1.7534 -1.42161,3.175 -3.175,3.175 H 76.989726 c -1.75339,0 -3.175,-1.4216 -3.175,-3.175 v -6.35 c 0,-1.7534 1.42161,-3.175 3.175,-3.175 H 129.9064 c 1.75339,0 3.175,1.4216 3.175,3.175 z"
           id="path362-3"
           sodipodi:nodetypes="ssssssssssssssssss" />
        <path
           style="fill:#ff0000;stroke-width:0.04248469"
           inkscape:connector-curvature="0"
           d="m 64.040766,118.87117 c -2.32816,-1.98404 -5.79067,-1.62717 -7.92765,0.57778 l -0.83695,0.86245 -0.83694,-0.86245 c -2.13274,-2.20495 -5.59949,-2.56182 -7.927653,-0.57778 -2.66804,2.27717 -2.80824,6.3642 -0.4206,8.83256 l 8.220793,8.48844 c 0.53106,0.54806 1.3935,0.54806 1.92456,0 l 8.22079,-8.48844 c 2.39188,-2.46836 2.25169,-6.55539 -0.41635,-8.83256 z"
           id="path398" />
        <path
           id="path400"
           d="m 64.040766,143.66836 c -2.32816,-1.98404 -5.79067,-1.62717 -7.92765,0.57778 l -0.83695,0.86245 -0.83694,-0.86245 c -2.13274,-2.20495 -5.59949,-2.56182 -7.927653,-0.57778 -2.66804,2.27717 -2.80824,6.3642 -0.4206,8.83256 l 8.220793,8.48844 c 0.53106,0.54806 1.3935,0.54806 1.92456,0 l 8.22079,-8.48844 c 2.39188,-2.46836 2.25169,-6.55539 -0.41635,-8.83256 z"
           inkscape:connector-curvature="0"
           style="fill:#ff0000;stroke-width:0.04248469" />
        <path
           style="fill:#ff0000;stroke-width:0.04248469"
           inkscape:connector-curvature="0"
           d="m 64.040766,169.32998 c -2.32816,-1.98404 -5.79067,-1.62717 -7.92765,0.57778 l -0.83695,0.86245 -0.83694,-0.86245 c -2.13274,-2.20495 -5.59949,-2.56182 -7.927653,-0.57778 -2.66804,2.27717 -2.80824,6.3642 -0.4206,8.83256 l 8.220793,8.48844 c 0.53106,0.54806 1.3935,0.54806 1.92456,0 l 8.22079,-8.48844 c 2.39188,-2.46836 2.25169,-6.55539 -0.41635,-8.83256 z"
           id="path402" />
        <path
           id="path404"
           d="m 64.040766,194.9916 c -2.32816,-1.98404 -5.79067,-1.62717 -7.92765,0.57778 l -0.83695,0.86245 -0.83694,-0.86245 c -2.13274,-2.20495 -5.59949,-2.56182 -7.927653,-0.57778 -2.66804,2.27717 -2.80824,6.3642 -0.4206,8.83256 l 8.220793,8.48844 c 0.53106,0.54806 1.3935,0.54806 1.92456,0 l 8.22079,-8.48844 c 2.39188,-2.46836 2.25169,-6.55539 -0.41635,-8.83256 z"
           inkscape:connector-curvature="0"
           style="fill:#ff0000;stroke-width:0.04248469" />
        <path
           style="fill:#ff0000;stroke-width:0.04248469"
           inkscape:connector-curvature="0"
           d="m 64.040766,220.91507 c -2.32816,-1.98404 -5.79067,-1.62717 -7.92765,0.57778 l -0.83695,0.86245 -0.83694,-0.86245 c -2.13274,-2.20495 -5.59949,-2.56182 -7.927653,-0.57778 -2.66804,2.27717 -2.80824,6.3642 -0.4206,8.83256 l 8.220793,8.48844 c 0.53106,0.54806 1.3935,0.54806 1.92456,0 l 8.22079,-8.48844 c 2.39188,-2.46836 2.25169,-6.55539 -0.41635,-8.83256 z"
           id="path406" />
      </g>
    </g>
    <path
       id="path10"
       d="m -90.21628,129.17724 h 25.40001 c 4.65666,0 8.46666,-3.81 8.46666,-8.46667 0,-4.65667 -3.81,-8.46667 -8.46666,-8.46667 h -25.40001 c 0,0 -25.4,-28.310409 -25.4,-42.333334 0,-14.022919 11.37709,-25.4 25.4,-25.4 14.02292,0 25.40001,11.377081 25.40001,25.4 0,6.74687 -5.87375,16.774585 -11.98563,25.400005 h 11.98563 c 13.99646,0 25.4,11.403539 25.4,25.399999 0,13.99646 -11.40354,25.4 -25.4,25.4 h -25.40001 c -4.65666,0 -8.46666,3.81 -8.46666,8.46667 0,4.65666 3.81,8.46666 8.46666,8.46666 h 60.98647 c 4.23333,6.56167 8.94291,12.62063 12.51479,16.93334 h -73.50126 c -13.99645,0 -25.4,-11.40355 -25.4,-25.4 0,-13.99646 11.40355,-25.4 25.4,-25.4 z m 0,-67.733343 c -4.68312,0 -8.46666,3.783539 -8.46666,8.466669 0,4.68312 3.78354,8.466672 8.46666,8.466672 4.68313,0 8.46667,-3.783552 8.46667,-8.466672 0,-4.68313 -3.78354,-8.466669 -8.46667,-8.466669 z M -5.5496103,112.2439 c 14.02292,0 25.4000003,11.37709 25.4000003,25.4 0,14.02292 -25.4000003,42.33334 -25.4000003,42.33334 0,0 -25.3999997,-28.31042 -25.3999997,-42.33334 0,-14.02291 11.37709,-25.4 25.3999997,-25.4 z m 0,33.86667 c 4.68313001,0 8.46667,-3.78354 8.46667,-8.46667 0,-4.68312 -3.78353999,-8.46666 -8.46667,-8.46666 -4.6831197,0 -8.4666597,3.78354 -8.4666597,8.46666 0,4.68313 3.78354,8.46667 8.4666597,8.46667 z"
       inkscape:connector-curvature="0"
       style="fill:#aaffaa;stroke-width:0.26458332" />
    <path
       style="fill:#aaaaff;stroke-width:0.11689352"
       inkscape:connector-curvature="0"
       d="M -12.17791,-14.329442 C -26.67734,-7.5385541 -32.92599,9.7196856 -26.1351,24.219125 -19.34422,38.718538 -2.0859703,44.967197 12.41345,38.176306 26.91286,31.385426 33.16152,14.127176 26.37064,-0.37224442 19.57974,-14.871673 2.3215097,-21.120324 -12.17791,-14.329442 Z m 26.44068,33.775098 c -0.2205,0.604051 -0.45167,1.237691 -0.63801,1.75482 -0.16779,0.465791 -0.2077,0.962112 -0.12218,1.439621 0.12078,0.67404 0.27523,1.34002 0.33148,2.022348 l 0.48192,5.821633 c -1.30789,0.999767 -2.73152,1.884688 -4.28233,2.61103 L 8.6761597,30.196716 c -0.4468,-1.419709 -2.60651,-3.459649 -4.93652,-4.30326 -0.93263,-0.337679 -1.69295,-1.03228 -2.11387,-1.931 l -1.58703999,-3.38853 c -0.57711,-1.232209 -1.77133001,-2.054018 -3.12915001,-2.144789 -1.91536,-0.12914 -4.62993,-0.29183 -6.46147,-0.344001 -1.5018297,-0.0427 -2.9909497,-0.295259 -4.4287697,-0.733229 l -0.12041,-0.0366 a 13.418442,13.418442 0 0 1 -2.94005,-1.300069 c -1.67568,-0.992651 -4.41617,-2.632761 -6.19714,-3.698651 -0.089,-5.8314714 2.00454,-11.52854142 5.87293,-15.9025014 l 3.13711,0.0809 c 1.39011,0.0356 2.3322,-1.40336 1.7422,-2.6631 l -0.56025,-1.1961996 c 0.78183,-0.5327402 1.60183,-1.0225501 2.46189,-1.4654303 l 4.3988897,1.5926901 c 0.9715,0.3517698 1.47374,1.4240998 1.122,2.3956098 l -0.26446,0.72792 -0.58192,1.60723 c -0.17559,0.48498 0.0758,1.02166 0.56074,1.19725 l 0.729,0.26394 c 0.48498,0.17560998 0.73635,0.71231998 0.56075,1.19728998 l -0.45023,1.24348002 a 0.93608337,0.93608337 0 0 1 -0.48313,0.52835 l -0.95168,0.44572 c -0.22017,0.10312 -0.39175,0.28799 -0.47814,0.51695 l -0.57168,1.51336 a 0.93608337,0.93608337 0 0 0 0.29433,1.06388 l 3.1967,2.52876 c 0.54535,0.43129 0.4461,1.28582 -0.18274,1.580331 l -0.59705,0.27963 c -0.20431,0.0957 -0.43587,0.11388 -0.65189,0.0523 l -1.38196,-0.39312 a 1.8722836,1.8722836 0 0 0 -1.79978,0.442799 L -10.90111,12.599877 a 1.3968776,1.3968776 0 0 0 -0.30264,1.605529 c 0.22459,0.479501 0.70037,0.78981 1.2297397,0.803902 l 1.44759,0.0371 c 1.22962,0.032 2.4499,-0.223231 3.56354,-0.744802 1.11363,-0.521578 3.74436,1.76888 4.97400001,1.800903 L 7.0771597,12.793087 c 0.89874,-0.420931 1.92646,-0.467241 2.86014,-0.13008 l 2.1279303,0.770451 a 3.5656033,3.5656033 0 0 1 2.01475,1.84063 5.4397571,5.4397571 0 0 1 0.18276,4.17146 z M 18.91265,5.4764556 c -0.68482,0.13355 -1.39541,0.008 -1.99219,-0.35385 l -3.24049,-1.96356 A 2.801938,2.801938 0 0 1 12.36015,0.34106558 l 0.61713,-4.08136998 c 0.0735,-0.48234 0.27037,-0.93852 0.57406,-1.32088 l 1.05228,-1.33053 c 2.76587,2.1794 5.09283,4.99809 6.6858,8.39929 0.42987,0.91782 0.77247,1.85322 1.07362,2.79386 z"
       id="path1302" />
    <path
       style="fill:#cccccc;stroke-width:0.17582761"
       inkscape:connector-curvature="0"
       d="m 29.80188,65.715148 8.3119,-36.572161 c 0.6001,-2.640571 -1.40698,-5.155081 -4.11488,-5.155081 h -69.06194 l -1.61163,-7.878839 c -0.40159,-1.963809 -2.12963,-3.374142 -4.13424,-3.374142 h -18.02744 c -2.3306,0 -4.21985,1.889271 -4.21985,4.219882 v 2.813249 c 0,2.33059 1.88925,4.21985 4.21985,4.21985 h 12.28737 l 12.35154,60.385365 c -2.95496,1.69937 -4.94621,4.88572 -4.94621,8.53907 0,5.43799 4.40834,9.846339 9.84635,9.846339 5.43799,0 9.84635,-4.408349 9.84635,-9.846339 0,-2.75593 -1.13357,-5.24582 -2.95814,-7.0331 h 36.86175 c -1.82439,1.78728 -2.95796,4.27717 -2.95796,7.0331 0,5.43799 4.40836,9.846339 9.84636,9.846339 5.43799,0 9.84635,-4.408349 9.84635,-9.846339 0,-3.89845 -2.26607,-7.26731 -5.55247,-8.8626 l 0.97005,-4.268383 c 0.60009,-2.640592 -1.40698,-5.155102 -4.1149,-5.155102 h -47.1953 l -1.1508,-5.626478 h 51.543 c 1.97033,0 3.67831,-1.363372 4.11489,-3.28463 z"
       id="path465" />
  </g>
</svg>
