<?xml version="1.0" encoding="UTF-8" standalone="no"?>
<!-- Created with Inkscape (http://www.inkscape.org/) -->

<svg
   xmlns:dc="http://purl.org/dc/elements/1.1/"
   xmlns:cc="http://creativecommons.org/ns#"
   xmlns:rdf="http://www.w3.org/1999/02/22-rdf-syntax-ns#"
   xmlns:svg="http://www.w3.org/2000/svg"
   xmlns="http://www.w3.org/2000/svg"
   xmlns:sodipodi="http://sodipodi.sourceforge.net/DTD/sodipodi-0.dtd"
   xmlns:inkscape="http://www.inkscape.org/namespaces/inkscape"
   width="386mm"
   height="180mm"
   viewBox="0 0 386 180"
   version="1.1"
   id="svg8"
   inkscape:version="0.92.3 (2405546, 2018-03-11)"
   sodipodi:docname="logo.svg">
  <defs
     id="defs2" />
  <sodipodi:namedview
     id="base"
     pagecolor="#ffffff"
     bordercolor="#666666"
     borderopacity="1.0"
     inkscape:pageopacity="0.0"
     inkscape:pageshadow="2"
     inkscape:zoom="0.42295808"
     inkscape:cx="729.05432"
     inkscape:cy="716.34827"
     inkscape:document-units="mm"
     inkscape:current-layer="layer1"
     showgrid="false"
     inkscape:window-width="1366"
     inkscape:window-height="704"
     inkscape:window-x="0"
     inkscape:window-y="27"
     inkscape:window-maximized="1"
     showguides="true"
     inkscape:guide-bbox="true"
     width="145mm"
     inkscape:pagecheckerboard="false">
    <sodipodi:guide
       position="61.319361,275.4918"
       orientation="0,1"
       id="guide825"
       inkscape:locked="false" />
    <sodipodi:guide
       position="66.389342,268.2294"
       orientation="0,1"
       id="guide827"
       inkscape:locked="false" />
    <sodipodi:guide
       position="135.32241,237.60508"
       orientation="0,1"
       id="guide1027"
       inkscape:locked="false" />
    <sodipodi:guide
       position="103.85663,219.89079"
       orientation="1,0"
       id="guide1031"
       inkscape:locked="false" />
    <sodipodi:guide
       position="69.645351,287.21511"
       orientation="0,1"
       id="guide1649"
       inkscape:locked="false" />
    <sodipodi:guide
       position="-23.598837,180.73256"
       orientation="0,1"
       id="guide1651"
       inkscape:locked="false" />
    <sodipodi:guide
       position="386.79069,21.296511"
       orientation="1,0"
       id="guide1653"
       inkscape:locked="false" />
  </sodipodi:namedview>
  <metadata
     id="metadata5">
    <rdf:RDF>
      <cc:Work
         rdf:about="">
        <dc:format>image/svg+xml</dc:format>
        <dc:type
           rdf:resource="http://purl.org/dc/dcmitype/StillImage" />
        <dc:title></dc:title>
      </cc:Work>
    </rdf:RDF>
  </metadata>
  <g
     inkscape:label="Layer 1"
     inkscape:groupmode="layer"
     id="layer1"
     transform="translate(0,-117)">
    <text
       id="text986-7"
       y="235.27335"
       x="7.0153599"
       style="font-style:normal;font-variant:normal;font-weight:normal;font-stretch:normal;font-size:182.72041321px;line-height:1.25;font-family:'Courier 10 Pitch';-inkscape-font-specification:'Courier 10 Pitch';letter-spacing:0px;word-spacing:0px;fill:#000000;fill-opacity:1;stroke:none;stroke-width:3.45298409;stroke-miterlimit:4;stroke-dasharray:none"
       xml:space="preserve"
       transform="scale(0.87792929,1.1390439)"><tspan
         style="font-style:normal;font-variant:normal;font-weight:normal;font-stretch:normal;line-height:0px;font-family:'Friend Write';-inkscape-font-specification:'Friend Write';fill:#ff0000;stroke-width:3.45298409;stroke-miterlimit:4;stroke-dasharray:none"
         y="235.27335"
         x="7.0153599"
         id="tspan984-2"
         sodipodi:role="line">wish</tspan><tspan
         style="font-style:normal;font-variant:normal;font-weight:normal;font-stretch:normal;line-height:0px;font-family:'Friend Write';-inkscape-font-specification:'Friend Write';fill:#ff0000;stroke-width:3.45298409;stroke-miterlimit:4;stroke-dasharray:none"
         y="463.67386"
         x="7.0153599"
         sodipodi:role="line"
         id="tspan1021" /></text>
    <path
       style="fill:#ff0000;stroke:#ff0000;stroke-width:9.60755918;stroke-linecap:round;stroke-linejoin:round;stroke-miterlimit:4;stroke-dasharray:none;stroke-opacity:1"
       d="M 468.26172 564.14062 C 467.0841 564.14116 465.87897 564.14744 464.69922 564.14844 L 458.07812 580.24023 C 460.82548 580.13248 463.42763 580.02359 466.19727 579.91602 L 479.38672 564.15234 C 475.66295 564.15034 472.00508 564.13893 468.26172 564.14062 z M 449.76367 564.18164 C 442.43364 564.19774 435.14731 564.20472 427.77148 564.23242 L 421.89648 581.68555 C 428.85169 581.39916 436.1618 581.11492 443.28906 580.83008 L 449.76367 564.18164 z M 401.41602 564.35352 C 263.8849 565.18761 121.47297 568.61707 18.238281 577.4707 L 32.505859 602.68555 C 32.505859 602.68555 163.90499 592.65473 395.47656 582.78711 L 401.41602 564.35352 z "
       transform="matrix(0.26458333,0,0,0.26458333,0,117)"
       id="path826-1-1" />
    <path
       style="opacity:1;fill:#ff0000;stroke-width:0.37795275;stroke-miterlimit:4;stroke-dasharray:none"
       d="m 1056.6973,357.89258 c -2.9727,-0.0518 -5.9584,0.20365 -9.9395,0.75 -15.082,2.07107 -30.7615,9.9792 -46.5176,23.46289 l -2.81051,2.40625 -3.5,-2.94727 c -11.50727,-9.6847 -20.10753,-15.01233 -30.59375,-18.95117 -17.77871,-6.67797 -35.16675,-6.12367 -50.9961,1.625 -14.10489,6.90448 -24.03475,16.83317 -31.01757,31.00977 -10.38142,21.07563 -9.51813,44.58112 0.78906,70.59179 17.24126,43.5094 52.66031,76.92008 84.88672,95.96289 3.0376,1.79517 5.38763,3.66103 5.22851,4.14844 -0.53839,1.628 -10.52721,2.13495 -34.18554,1.75586 -27.52585,-0.43963 -71.17943,-0.9307 -83.38598,-1.184 -12.20655,-0.2533 -294.22794,-5.18741 -294.22794,-5.18741 -2.89919,1.28704 -6.25684,18.43686 -4.25326,19.39929 0.89506,0.42995 249.66931,-1.19866 249.66931,-1.19866 0,0 155.54782,1.81799 180.19787,-2.65734 10.97873,-1.99427 10.9764,-1.99445 20.03128,0.3789 6.8143,1.785 19.1963,3.85772 27.2129,4.5586 v -0.002 c 33.3092,2.90669 108.4462,14.19444 159.2826,-1.12864 36.1549,-10.8978 94.8558,-61.93413 94.8558,-61.93413 l -7.1816,-9.68359 c 0,0 -21.9978,19.45468 -52.2211,40.6978 -62.8047,44.14362 -122.0236,27.5404 -198.2963,19.64817 -9.1756,-0.97326 -11.2455,-2.14916 -7.457,-4.24218 5.8573,-3.23354 19.8841,-12.89499 26.3789,-18.16993 24.0161,-19.50538 49.9624,-51.34467 61.4512,-75.4082 7.7537,-16.2435 10.7182,-28.48502 10.7031,-44.2207 -0.01,-9.3473 -0.296,-12.04683 -1.959,-18.34375 -2.3782,-9.00707 -6.7751,-18.00827 -12.375,-25.33008 -9.8813,-12.91918 -24.6235,-22.04644 -39.9141,-24.71289 -3.9234,-0.68328 -6.8827,-1.042 -9.8554,-1.09375 z m -115.21878,25.88867 c 5.30685,-10e-4 10.71764,0.59297 14.51953,1.78125 11.33775,3.54285 14.65196,3.00695 24.98047,12.73047 8.79333,8.27849 13.42382,19.79101 13.42382,19.79101 0,0 19.34166,-20.3383 31.60746,-25.91015 12.2657,-5.57125 27.7347,-10.71995 39.4121,-6.60938 11.677,4.11058 29.6651,20.15 34.5527,37.8086 1.9337,6.9905 1.772,22.45795 -0.3242,30.8457 -4.4569,17.83861 -14.6523,35.83471 -32.2695,56.96484 -19.3044,23.15339 -41.594,41.32552 -61.0723,49.79102 -8.21694,3.57015 -10.93054,3.66917 -18.11524,0.66211 C 965.88485,552.29611 942.13522,530.82777 920,502.5332 c -17.91666,-22.90136 -28.6526,-45.59667 -28.66016,-64.7207 -0.004,-6.4964 1.89618,-16.15413 4.33008,-22 5.69167,-13.67195 18.04506,-25.37949 31.90625,-30.24219 3.39235,-1.19047 8.59549,-1.78772 13.90235,-1.78906 z"
       transform="matrix(0.26458333,0,0,0.26458333,0,117)"
       id="path875-0"
       inkscape:connector-curvature="0"
       sodipodi:nodetypes="sccccccccccczcccccccaccsccscccccssccccccccccccccsc" />
    <text
       xml:space="preserve"
       style="font-style:normal;font-variant:normal;font-weight:normal;font-stretch:normal;font-size:89.20650482px;line-height:1.25;font-family:'Friend Write';-inkscape-font-specification:'Friend Write';letter-spacing:0px;word-spacing:0px;fill:#ff0000;fill-opacity:1;stroke:none;stroke-width:2.23016238"
       x="237.46004"
       y="185.65492"
       id="text1025"><tspan
         sodipodi:role="line"
         id="tspan1023"
         x="237.46004"
         y="185.65492"
         style="font-style:normal;font-variant:normal;font-weight:normal;font-stretch:normal;font-family:'Friend Write';-inkscape-font-specification:'Friend Write';fill:#ff0000;stroke-width:2.23016238">to go</tspan></text>
    <g
       id="g4609"
       style="stroke:#ff0000;stroke-width:1.58231969;stroke-linecap:round;stroke-linejoin:round;stroke-miterlimit:4;stroke-dasharray:none;stroke-opacity:1"
       transform="matrix(2.2513267,-0.49542834,0.45615597,2.0728651,-594.19912,-266.79527)">
      <path
         inkscape:connector-curvature="0"
         id="path4598"
         d="m 336.16908,324.55675 31.29327,-16.11369 -7.70656,26.62263 -8.05685,-8.05685 15.99693,-18.68255 -22.30229,17.63166 z"
         style="fill:none;stroke:#ff0000;stroke-width:1.58231969;stroke-linecap:round;stroke-linejoin:round;stroke-miterlimit:4;stroke-dasharray:none;stroke-opacity:1" />
      <path
         inkscape:connector-curvature="0"
         id="path4600"
         d="m 345.39359,325.95795 3.85326,5.60476 2.45209,-4.55387"
         style="fill:none;stroke:#ff0000;stroke-width:1.58231969;stroke-linecap:round;stroke-linejoin:round;stroke-miterlimit:4;stroke-dasharray:none;stroke-opacity:1" />
      <path
         sodipodi:nodetypes="cc"
         inkscape:connector-curvature="0"
         id="path4602"
         d="m 349.24685,331.56271 3.50299,-3.38621"
         style="fill:none;stroke:#ff0000;stroke-width:1.58231969;stroke-linecap:round;stroke-linejoin:round;stroke-miterlimit:4;stroke-dasharray:none;stroke-opacity:1" />
    </g>
  </g>
</svg>
