<?xml version="1.0" encoding="UTF-8"?>
<svg width="386mm" height="180mm" version="1.1" viewBox="0 0 386 180" xmlns="http://www.w3.org/2000/svg">
 <g transform="translate(0,-117)">
  <g transform="scale(.87793 1.139)" fill="#f00" stroke-width="3.453" aria-label="wish ">
   <path d="m56.167 168.58c-6.0298 5.847-53.172 61.759-32.159 25.215 1.4618-2.7408 13.156-22.475 12.425-25.946-1.279-8.5879-10.598-11.877-15.897-6.0298-9.5015 10.232-15.349 24.667-15.349 39.285-0.18272 5.2989 1.0963 10.05 6.0298 14.435 5.1162 4.2026 8.7706 4.7507 13.704 0.36544 6.2125-5.6643 17.358-17.907 24.119-26.494 0 2.9235-2.9235 13.704-2.7408 15.714 0.36544 9.3187 5.4816 15.349 12.608 19.003 6.0298 3.289 11.877 0.73088 16.262-4.568 4.0198-4.2026 7.3088-8.7706 10.598-13.704 6.9434-10.78 13.704-21.744 20.647-33.072 2.3754-3.6544 2.1926-5.847-1.4618-9.3187-3.4717-3.4717-4.7507-3.4717-7.6743 0-12.242 14.435-22.109 30.514-33.803 45.863-5.1162 6.7606-4.568 0.54816-2.3754-6.3952 2.3754-7.857 7.857-21.378 10.781-29.601 1.4618-7.1261-8.4051-11.329-15.714-4.7507z"/>
   <path d="m119.08 211.52c-0.36545-0.36544-0.73089-0.73088-1.0963-1.279 0.73088-1.4618 1.6445-3.289 2.5581-4.7507 5.2989-9.136 10.78-18.089 16.079-26.86 2.7408-4.3853 2.9235-6.0298-0.36545-9.8669-0.9136-1.0963-2.0099-2.1926-3.289-3.1062-4.2026-3.4717-6.5779-3.4717-10.232 0.54816-9.3187 10.232-16.81 21.744-20.282 35.265-1.279 4.2026-1.6445 8.9533 0.54816 13.339 4.3853 8.5879 12.608 11.329 21.196 7.1261 9.6842-4.7507 16.445-13.156 25.033-19.734-1.0963-1.4618-1.8272-2.7408-2.5581-3.8371-3.1062-3.8371-4.9334-3.8371-8.9533-0.54816-3.1062 2.3754-6.2125 4.9334-9.3187 7.4915-3.1062 2.1926-6.2125 4.0198-9.3187 6.2125zm31.428-67.607c-0.36544-4.568-3.1062-6.9434-6.2125-8.7706-2.7408-1.8272-4.7507-1.6445-6.9434 1.0963-2.3754 3.4717-4.7507 7.3088-6.2125 11.146-1.8272 4.0198 4.2026 10.78 8.5879 10.415 0.73088 0 2.0099-0.73088 2.5581-1.4618 2.3754-2.9235 4.7507-6.0298 6.7606-9.3187 0.73088-0.91361 1.0963-2.1926 1.4618-3.1062z"/>
   <path d="m163.68 205.31c-16.079-13.521 6.5779-22.475 6.5779-35.265 0-6.0298-9.3187-11.694-14.618-9.8669-7.6742 2.5581-20.282 25.398-14.8 36.544 2.9235 5.4816 9.5015 7.3088 12.06 13.704-11.511 7.857-39.102 22.109-29.235 40.016 5.1162 6.7607 11.511 8.4051 18.82 6.3952 17.541-4.3853 29.601-23.754 24.302-42.208 5.1162-3.289 12.242-7.1261 13.887-10.781 1.279-1.8272-0.73088-10.232-5.2989-6.0298-2.7408 1.6445-7.3088 5.2989-11.694 7.4915zm-28.139 36.727c-2.5581-6.9434 8.2224-15.166 18.455-21.926 0 9.6842-12.973 20.465-18.455 21.926z"/>
   <path d="m193.92 187.58c-0.36544-0.18272-0.54816-0.36544-0.9136-0.54816 2.3754-8.0397 10.415-20.282 15.531-27.774 10.598-15.166 23.023-28.687 37.458-40.564 1.8272-1.0963 2.7408-2.5581 2.1926-4.568-2.0099-6.3952-9.8669-9.6842-15.166-5.847-23.388 15.714-39.285 41.843-51.344 68.52-4.2026 9.136-7.1261 18.455-8.2224 28.504-0.36544 2.1926-0.9136 4.568-0.73088 6.7606 0.18272 3.8371 4.0198 6.9434 8.2224 8.5879 4.2026 1.279 5.6643-0.73088 7.857-3.4717 9.136-13.156 21.561-22.475 34.717-30.88 0.9136-0.54817 2.0099-0.73089 4.0198-1.6445-1.6445 2.9235-2.7408 4.3853-3.8371 6.0298-4.3853 6.9434-9.3187 12.608-9.6842 23.023-0.36544 9.136 10.598 15.714 18.272 10.78 7.4915-4.568 14.252-10.232 21.196-15.349 3.1062-2.5581 3.6544-5.8471 1.8272-8.5879-2.5581-3.4717-2.9235-3.8371-5.847-2.0099-2.7408 1.8272-8.0397 6.2125-10.781 8.0397-4.3853 3.289-10.232 8.2224-14.252 8.4051 3.289-6.5779 6.0298-9.8669 10.05-16.262 2.7408-4.0198 4.9334-8.4051 6.9434-12.973 1.4618-2.7408 1.279-5.847-0.54816-8.7706-4.568-6.9434-9.3187-9.8669-17.907-7.1261-10.598 3.6544-19.368 10.415-29.053 17.724z"/>
  </g>
  <g fill="#f00">
   <path transform="matrix(.26458 0 0 .26458 0 117)" d="m468.26 564.14c-1.1776 5.4e-4 -2.3828 0.00682-3.5625 0.00782l-6.6211 16.092c2.7474-0.10775 5.3495-0.21664 8.1192-0.32421l13.189-15.764c-3.7238-2e-3 -7.3816-0.01341-11.125-0.01172zm-18.498 0.04102c-7.33 0.0161-14.616 0.02308-21.992 0.05078l-5.875 17.453c6.9552-0.28639 14.265-0.57063 21.393-0.85547l6.4746-16.648zm-48.348 0.17188c-137.53 0.83409-279.94 4.2636-383.18 13.117l14.268 25.215s131.4-10.031 362.97-19.898l5.9395-18.434z" stroke="#f00" stroke-linecap="round" stroke-linejoin="round" stroke-width="9.6076"/>
   <path transform="matrix(.26458 0 0 .26458 0 117)" d="m1056.7 357.89c-2.9727-0.0518-5.9584 0.20365-9.9395 0.75-15.082 2.0711-30.762 9.9792-46.518 23.463l-2.8105 2.4062-3.5-2.9473c-11.507-9.6847-20.108-15.012-30.594-18.951-17.779-6.678-35.167-6.1237-50.996 1.625-14.105 6.9045-24.035 16.833-31.018 31.01-10.381 21.076-9.5181 44.581 0.78906 70.592 17.241 43.509 52.66 76.92 84.887 95.963 3.0376 1.7952 5.3876 3.661 5.2285 4.1484-0.53839 1.628-10.527 2.135-34.186 1.7559-27.526-0.43963-71.179-0.9307-83.386-1.184s-294.23-5.1874-294.23-5.1874c-2.8992 1.287-6.2568 18.437-4.2533 19.399 0.89506 0.42995 249.67-1.1987 249.67-1.1987s155.55 1.818 180.2-2.6573c10.979-1.9943 10.976-1.9944 20.031 0.3789 6.8143 1.785 19.196 3.8577 27.213 4.5586v-2e-3c33.309 2.9067 108.45 14.194 159.28-1.1286 36.155-10.898 94.856-61.934 94.856-61.934l-7.1816-9.6836s-21.998 19.455-52.221 40.698c-62.805 44.144-122.02 27.54-198.3 19.648-9.1756-0.97326-11.246-2.1492-7.457-4.2422 5.8573-3.2335 19.884-12.895 26.379-18.17 24.016-19.505 49.962-51.345 61.451-75.408 7.7537-16.244 10.718-28.485 10.703-44.221-0.01-9.3473-0.296-12.047-1.959-18.344-2.3782-9.0071-6.7751-18.008-12.375-25.33-9.8813-12.919-24.624-22.046-39.914-24.713-3.9234-0.68328-6.8827-1.042-9.8554-1.0938zm-115.22 25.889c5.3068-1e-3 10.718 0.59297 14.52 1.7812 11.338 3.5428 14.652 3.007 24.98 12.73 8.7933 8.2785 13.424 19.791 13.424 19.791s19.342-20.338 31.607-25.91c12.266-5.5712 27.735-10.72 39.412-6.6094 11.677 4.1106 29.665 20.15 34.553 37.809 1.9337 6.9905 1.772 22.458-0.3242 30.846-4.4569 17.839-14.652 35.835-32.27 56.965-19.304 23.153-41.594 41.326-61.072 49.791-8.2169 3.5702-10.931 3.6692-18.115 0.66211-22.309-9.3406-46.058-30.809-68.193-59.104-17.917-22.901-28.653-45.597-28.66-64.721-4e-3 -6.4964 1.8962-16.154 4.3301-22 5.6917-13.672 18.045-25.379 31.906-30.242 3.3924-1.1905 8.5955-1.7877 13.902-1.7891z" stroke-width=".37795"/>
   <g stroke-width="2.2302" aria-label="to go">
    <path d="m238.53 179.95c3.1222 3.033 5.62 1.4273 9.1883-0.98128 4.2819-3.033 8.207-6.1552 12.578-9.3667-0.0892-0.17841 0-0.35682-0.0892-0.53524-1.6057-2.7654-2.7654-3.1222-5.7984-1.2489-4.1927 2.6762-7.8502 6.066-12.221 9.0099 0.62445-9.3667 13.024-27.922 19.447-37.645l27.922-0.89206 2.141-0.35683c-0.89206-2.7654-1.9625-3.5683-4.6387-3.6575-11.864 0-19.982-0.0892-21.053-0.17842 2.9438-3.9251 6.1552-7.1365 9.9019-10.08 0.98127-1.8733-5.2632-5.3524-9.0991-2.587-3.9251 2.4086-9.5451 9.0099-13.381 13.113-2.0518 0.98127-9.5451 0.89206-12.4 1.1597-0.26762 1.9625 0.98127 2.9438 2.141 4.0143 1.6057 1.3381 4.9064 0.26762 7.3149 0.35683-8.5638 11.686-18.823 33.096-11.954 39.875z"/>
    <path d="m283.37 164.78c2.6762-6.9581 3.1222-13.916-6.4229-16.503-5.7984-1.5165-10.794 2.6762-12.667 10.348-4.8172 2.141-8.3854 6.5121-7.8502 12.221 0.0892 1.5165 0.53524 3.2114 1.5165 4.6387 4.2819 5.7984 11.329 7.0473 16.86 1.5165 2.2302-1.9625 3.9251-4.4603 5.7092-6.8689 1.8733-2.6762 3.7467 0 8.8314-1.5165 2.3194-0.71365 2.4086-2.9438-0.0892-3.1222-1.6949-0.0892-4.0143 0.0892-5.8876-0.71365zm-18.644 9.4559c-2.4978-4.0143-0.53523-9.1883 3.8359-9.9911 1.4273 1.0705 2.4086 1.9625 3.7467 2.3194-1.6057 3.3006-5.8876 9.0991-7.5826 7.6718zm6.8689-12.846c0.80285-2.9438 5.4416-10.437 7.5826-8.1178-0.26762 1.9625-3.9251 9.9019-7.5826 8.1178z"/>
    <path d="m347.75 155.41c-0.89207-1.0705-1.9625-2.587-3.2114-3.7467-1.6057-1.4273-2.6762-1.1597-3.8359 0.71366-0.53523 0.71365-0.98127 1.6057-1.5165 2.4086-0.80285-0.62444-1.3381-1.2489-1.9625-1.7841-3.2114-2.9438-6.9581-4.4603-11.329-3.8359-9.6343 1.2489-16.592 9.5451-16.236 19.447 0.17841 3.6575 1.9625 6.2445 4.9956 8.207 1.5165 0.89206 3.1222 1.3381 4.8172 0.62444 2.0518-1.0705 4.0143-2.141 5.9768-3.3006 1.3381-0.80286 2.4086-1.6949 3.4791-2.587 0.17841 0.17842 0.26762 0.35683 0.44603 0.44604-1.6949 2.8546-3.2114 5.7984-4.9956 8.5638-3.3006 4.9956-6.6013 10.17-11.24 14.184-3.1222 2.8546-6.6013 5.0848-10.972 5.62-1.6057 0.17841-2.7654-0.0892-3.8359-1.6057-0.89207-1.4273-2.141-2.6762-4.1927-2.6762-0.44603 1.8733-0.44603 1.9626 0.17841 3.3006 2.2302 4.8172 8.7422 10.08 16.414 7.5826 3.1222-1.1597 5.8876-2.7654 8.3854-4.9064 4.1035-3.3898 7.2257-7.5826 10.08-11.864 6.6013-9.7235 11.24-20.339 16.325-30.776 0.62444-1.1597 1.3381-2.4086 2.2302-4.0143zm-32.293 17.841c-0.35682-3.6575 0.98128-6.066 2.6762-8.2962 3.3006-4.4603 7.6718-7.2257 12.935-8.653 2.2302-0.53524 4.4603-0.44603 6.6905 1.2489-7.4041 5.174-14.005 11.329-22.302 15.7z"/>
    <path d="m374.5 164.78c2.6762-6.9581 3.1222-13.916-6.4229-16.503-5.7984-1.5165-10.794 2.6762-12.667 10.348-4.8172 2.141-8.3854 6.5121-7.8502 12.221 0.0892 1.5165 0.53524 3.2114 1.5165 4.6387 4.2819 5.7984 11.329 7.0473 16.86 1.5165 2.2302-1.9625 3.9251-4.4603 5.7092-6.8689 1.8733-2.6762 3.7467 0 8.8314-1.5165 2.3194-0.71365 2.4086-2.9438-0.0892-3.1222-1.6949-0.0892-4.0143 0.0892-5.8876-0.71365zm-18.644 9.4559c-2.4978-4.0143-0.53524-9.1883 3.8359-9.9911 1.4273 1.0705 2.4086 1.9625 3.7467 2.3194-1.6057 3.3006-5.8876 9.0991-7.5826 7.6718zm6.8689-12.846c0.80286-2.9438 5.4416-10.437 7.5826-8.1178-0.26762 1.9625-3.9251 9.9019-7.5826 8.1178z"/>
   </g>
  </g>
  <g transform="matrix(2.2513 -.49543 .45616 2.0729 -594.2 -266.8)" fill="none" stroke="#f00" stroke-linecap="round" stroke-linejoin="round" stroke-width="1.5823">
   <path d="m336.17 324.56 31.293-16.114-7.7066 26.623-8.0568-8.0568 15.997-18.683-22.302 17.632z"/>
   <path d="m345.39 325.96 3.8533 5.6048 2.4521-4.5539"/>
   <path d="m349.25 331.56 3.503-3.3862"/>
  </g>
 </g>
</svg>
