<?xml version="1.0" encoding="UTF-8" standalone="no"?>
<!-- Created with Inkscape (http://www.inkscape.org/) -->

<svg
   xmlns:dc="http://purl.org/dc/elements/1.1/"
   xmlns:cc="http://creativecommons.org/ns#"
   xmlns:rdf="http://www.w3.org/1999/02/22-rdf-syntax-ns#"
   xmlns:svg="http://www.w3.org/2000/svg"
   xmlns="http://www.w3.org/2000/svg"
   xmlns:sodipodi="http://sodipodi.sourceforge.net/DTD/sodipodi-0.dtd"
   xmlns:inkscape="http://www.inkscape.org/namespaces/inkscape"
   width="386mm"
   height="180mm"
   viewBox="0 0 386 180"
   version="1.1"
   id="svg8"
   inkscape:version="0.92.3 (2405546, 2018-03-11)"
   sodipodi:docname="logo2.svg">
  <defs
     id="defs2" />
  <sodipodi:namedview
     id="base"
     pagecolor="#ffffff"
     bordercolor="#666666"
     borderopacity="1.0"
     inkscape:pageopacity="0.0"
     inkscape:pageshadow="2"
     inkscape:zoom="0.42295808"
     inkscape:cx="729.05432"
     inkscape:cy="432.63221"
     inkscape:document-units="mm"
     inkscape:current-layer="layer1"
     showgrid="false"
     inkscape:window-width="1366"
     inkscape:window-height="704"
     inkscape:window-x="0"
     inkscape:window-y="27"
     inkscape:window-maximized="1"
     showguides="true"
     inkscape:guide-bbox="true"
     width="145mm"
     inkscape:pagecheckerboard="false">
    <sodipodi:guide
       position="61.319361,275.4918"
       orientation="0,1"
       id="guide825"
       inkscape:locked="false" />
    <sodipodi:guide
       position="66.389342,268.2294"
       orientation="0,1"
       id="guide827"
       inkscape:locked="false" />
    <sodipodi:guide
       position="135.32241,237.60508"
       orientation="0,1"
       id="guide1027"
       inkscape:locked="false" />
    <sodipodi:guide
       position="103.85663,219.89079"
       orientation="1,0"
       id="guide1031"
       inkscape:locked="false" />
    <sodipodi:guide
       position="69.645351,287.21511"
       orientation="0,1"
       id="guide1649"
       inkscape:locked="false" />
    <sodipodi:guide
       position="-23.598837,180.73256"
       orientation="0,1"
       id="guide1651"
       inkscape:locked="false" />
    <sodipodi:guide
       position="386.79069,21.296511"
       orientation="1,0"
       id="guide1653"
       inkscape:locked="false" />
  </sodipodi:namedview>
  <metadata
     id="metadata5">
    <rdf:RDF>
      <cc:Work
         rdf:about="">
        <dc:format>image/svg+xml</dc:format>
        <dc:type
           rdf:resource="http://purl.org/dc/dcmitype/StillImage" />
        <dc:title></dc:title>
      </cc:Work>
    </rdf:RDF>
  </metadata>
  <g
     inkscape:label="Layer 1"
     inkscape:groupmode="layer"
     id="layer1"
     transform="translate(0,-117)">
    <g
       aria-label="wish
"
       transform="scale(0.87792929,1.1390439)"
       style="font-style:normal;font-variant:normal;font-weight:normal;font-stretch:normal;font-size:182.72041321px;line-height:1.25;font-family:'Courier 10 Pitch';-inkscape-font-specification:'Courier 10 Pitch';letter-spacing:0px;word-spacing:0px;fill:#000000;fill-opacity:1;stroke:none;stroke-width:3.45298409;stroke-miterlimit:4;stroke-dasharray:none"
       id="text986-7">
      <path
         d="m 56.167151,168.5804 c -6.029774,5.84705 -53.1716402,61.75949 -32.158793,25.21541 1.461764,-2.7408 13.15587,-22.47461 12.424988,-25.9463 -1.279042,-8.58786 -10.597784,-11.87682 -15.896676,-6.02977 -9.501461,10.23234 -15.3485143,24.66726 -15.3485143,39.28489 -0.1827204,5.29889 1.0963225,10.04962 6.0297733,14.43491 5.116172,4.20257 8.77058,4.75073 13.704031,0.36544 6.212494,-5.66433 17.35844,-17.9066 24.119095,-26.49446 0,2.92353 -2.923527,13.70403 -2.740806,15.71396 0.365441,9.31874 5.481612,15.34851 12.607708,19.00292 6.029774,3.28897 11.876827,0.73088 16.262117,-4.56801 4.019849,-4.20257 7.308817,-8.77058 10.597784,-13.70403 6.943376,-10.7805 13.704031,-21.74373 20.647402,-33.0724 2.37537,-3.6544 2.19265,-5.84705 -1.46176,-9.31874 -3.47169,-3.47168 -4.75073,-3.47168 -7.674256,0 -12.242268,14.43492 -22.10917,30.51431 -33.803276,45.86283 -5.116172,6.76065 -4.568011,0.54816 -2.375366,-6.39522 2.375366,-7.85697 7.856978,-21.37829 10.780505,-29.6007 1.461763,-7.1261 -8.405139,-11.32867 -15.713956,-4.75073 z"
         style="font-style:normal;font-variant:normal;font-weight:normal;font-stretch:normal;line-height:0px;font-family:'Friend Write';-inkscape-font-specification:'Friend Write';fill:#ff0000;stroke-width:3.45298409;stroke-miterlimit:4;stroke-dasharray:none"
         id="path52" />
      <path
         d="m 119.07722,211.51969 c -0.36545,-0.36544 -0.73089,-0.73088 -1.09633,-1.27904 0.73088,-1.46176 1.64449,-3.28897 2.55809,-4.75073 5.29889,-9.13602 10.7805,-18.08932 16.0794,-26.8599 2.7408,-4.38529 2.92352,-6.02978 -0.36545,-9.8669 -0.9136,-1.09633 -2.00992,-2.19265 -3.28896,-3.10625 -4.20257,-3.47169 -6.57794,-3.47169 -10.23235,0.54816 -9.31874,10.23234 -16.81027,21.74373 -20.28196,35.26504 -1.27905,4.20257 -1.64449,8.9533 0.54816,13.33859 4.38529,8.58786 12.60771,11.32867 21.19557,7.1261 9.68418,-4.75073 16.44483,-13.15587 25.03269,-19.73381 -1.09632,-1.46176 -1.8272,-2.74081 -2.55808,-3.83713 -3.10625,-3.83713 -4.93345,-3.83713 -8.9533,-0.54816 -3.10625,2.37537 -6.2125,4.93345 -9.31874,7.49154 -3.10625,2.19264 -6.2125,4.01985 -9.31874,6.21249 z m 31.42791,-67.60655 c -0.36544,-4.56801 -3.10625,-6.94338 -6.2125,-8.77058 -2.7408,-1.8272 -4.75073,-1.64448 -6.94337,1.09632 -2.37537,3.47169 -4.75073,7.30882 -6.2125,11.14595 -1.8272,4.01985 4.20257,10.7805 8.58786,10.41506 0.73088,0 2.00993,-0.73088 2.55809,-1.46176 2.37536,-2.92353 4.75073,-6.02978 6.76065,-9.31874 0.73088,-0.91361 1.09633,-2.19265 1.46177,-3.10625 z"
         style="font-style:normal;font-variant:normal;font-weight:normal;font-stretch:normal;line-height:0px;font-family:'Friend Write';-inkscape-font-specification:'Friend Write';fill:#ff0000;stroke-width:3.45298409;stroke-miterlimit:4;stroke-dasharray:none"
         id="path54" />
      <path
         d="m 163.68384,205.3072 c -16.07939,-13.52131 6.57794,-22.47461 6.57794,-35.26504 0,-6.02978 -9.31874,-11.69411 -14.61764,-9.8669 -7.67425,2.55808 -20.28196,25.39813 -14.80035,36.54408 2.92353,5.48161 9.50146,7.30882 12.05955,13.70403 -11.51139,7.85698 -39.10217,22.10917 -29.23527,40.01577 5.11617,6.76066 11.51139,8.40514 18.8202,6.39521 17.54116,-4.38529 29.60071,-23.75365 24.30182,-42.20841 5.11617,-3.28897 12.24227,-7.1261 13.88675,-10.78051 1.27904,-1.8272 -0.73088,-10.23234 -5.29889,-6.02977 -2.74081,1.64448 -7.30882,5.29889 -11.69411,7.49154 z M 135.5449,242.034 c -2.55809,-6.94337 8.22242,-15.16579 18.45476,-21.92645 0,9.68418 -12.97315,20.46469 -18.45476,21.92645 z"
         style="font-style:normal;font-variant:normal;font-weight:normal;font-stretch:normal;line-height:0px;font-family:'Friend Write';-inkscape-font-specification:'Friend Write';fill:#ff0000;stroke-width:3.45298409;stroke-miterlimit:4;stroke-dasharray:none"
         id="path56" />
      <path
         d="m 193.92406,187.58332 c -0.36544,-0.18272 -0.54816,-0.36544 -0.9136,-0.54816 2.37537,-8.0397 10.41506,-20.28197 15.53124,-27.77351 10.59778,-15.16579 23.02277,-28.6871 37.45768,-40.56393 1.82721,-1.09632 2.74081,-2.55808 2.19265,-4.56801 -2.00993,-6.39521 -9.86691,-9.68418 -15.1658,-5.84705 -23.38821,15.71395 -39.28489,41.84297 -51.34443,68.52015 -4.20257,9.13602 -7.1261,18.45477 -8.22242,28.50439 -0.36544,2.19264 -0.9136,4.56801 -0.73088,6.76065 0.18272,3.83713 4.01984,6.94338 8.22241,8.58786 4.20257,1.27905 5.66434,-0.73088 7.85698,-3.47168 9.13602,-13.15587 21.56101,-22.47462 34.71688,-30.87975 0.9136,-0.54817 2.00992,-0.73089 4.01985,-1.64449 -1.64448,2.92353 -2.74081,4.38529 -3.83713,6.02978 -4.38529,6.94337 -9.31874,12.6077 -9.68418,23.02277 -0.36544,9.13602 10.59778,15.71395 18.27204,10.7805 7.49154,-4.56801 14.25219,-10.23234 21.19557,-15.34851 3.10625,-2.55809 3.65441,-5.84706 1.8272,-8.58786 -2.55808,-3.47169 -2.92352,-3.83713 -5.84705,-2.00993 -2.74081,1.82721 -8.0397,6.2125 -10.78051,8.0397 -4.38529,3.28897 -10.23234,8.22242 -14.25219,8.40514 3.28897,-6.57793 6.02978,-9.8669 10.04963,-16.26212 2.7408,-4.01985 4.93345,-8.40514 6.94337,-12.97315 1.46176,-2.7408 1.27904,-5.84705 -0.54816,-8.77058 -4.56801,-6.94337 -9.31874,-9.8669 -17.9066,-7.12609 -10.59778,3.65441 -19.36836,10.41506 -29.05255,17.72388 z"
         style="font-style:normal;font-variant:normal;font-weight:normal;font-stretch:normal;line-height:0px;font-family:'Friend Write';-inkscape-font-specification:'Friend Write';fill:#ff0000;stroke-width:3.45298409;stroke-miterlimit:4;stroke-dasharray:none"
         id="path58" />
    </g>
    <path
       style="fill:#ff0000;stroke:#ff0000;stroke-width:9.60755918;stroke-linecap:round;stroke-linejoin:round;stroke-miterlimit:4;stroke-dasharray:none;stroke-opacity:1"
       d="M 468.26172 564.14062 C 467.0841 564.14116 465.87897 564.14744 464.69922 564.14844 L 458.07812 580.24023 C 460.82548 580.13248 463.42763 580.02359 466.19727 579.91602 L 479.38672 564.15234 C 475.66295 564.15034 472.00508 564.13893 468.26172 564.14062 z M 449.76367 564.18164 C 442.43364 564.19774 435.14731 564.20472 427.77148 564.23242 L 421.89648 581.68555 C 428.85169 581.39916 436.1618 581.11492 443.28906 580.83008 L 449.76367 564.18164 z M 401.41602 564.35352 C 263.8849 565.18761 121.47297 568.61707 18.238281 577.4707 L 32.505859 602.68555 C 32.505859 602.68555 163.90499 592.65473 395.47656 582.78711 L 401.41602 564.35352 z "
       transform="matrix(0.26458333,0,0,0.26458333,0,117)"
       id="path826-1-1" />
    <path
       style="opacity:1;fill:#ff0000;stroke-width:0.37795275;stroke-miterlimit:4;stroke-dasharray:none"
       d="m 1056.6973,357.89258 c -2.9727,-0.0518 -5.9584,0.20365 -9.9395,0.75 -15.082,2.07107 -30.7615,9.9792 -46.5176,23.46289 l -2.81051,2.40625 -3.5,-2.94727 c -11.50727,-9.6847 -20.10753,-15.01233 -30.59375,-18.95117 -17.77871,-6.67797 -35.16675,-6.12367 -50.9961,1.625 -14.10489,6.90448 -24.03475,16.83317 -31.01757,31.00977 -10.38142,21.07563 -9.51813,44.58112 0.78906,70.59179 17.24126,43.5094 52.66031,76.92008 84.88672,95.96289 3.0376,1.79517 5.38763,3.66103 5.22851,4.14844 -0.53839,1.628 -10.52721,2.13495 -34.18554,1.75586 -27.52585,-0.43963 -71.17943,-0.9307 -83.38598,-1.184 -12.20655,-0.2533 -294.22794,-5.18741 -294.22794,-5.18741 -2.89919,1.28704 -6.25684,18.43686 -4.25326,19.39929 0.89506,0.42995 249.66931,-1.19866 249.66931,-1.19866 0,0 155.54782,1.81799 180.19787,-2.65734 10.97873,-1.99427 10.9764,-1.99445 20.03128,0.3789 6.8143,1.785 19.1963,3.85772 27.2129,4.5586 v -0.002 c 33.3092,2.90669 108.4462,14.19444 159.2826,-1.12864 36.1549,-10.8978 94.8558,-61.93413 94.8558,-61.93413 l -7.1816,-9.68359 c 0,0 -21.9978,19.45468 -52.2211,40.6978 -62.8047,44.14362 -122.0236,27.5404 -198.2963,19.64817 -9.1756,-0.97326 -11.2455,-2.14916 -7.457,-4.24218 5.8573,-3.23354 19.8841,-12.89499 26.3789,-18.16993 24.0161,-19.50538 49.9624,-51.34467 61.4512,-75.4082 7.7537,-16.2435 10.7182,-28.48502 10.7031,-44.2207 -0.01,-9.3473 -0.296,-12.04683 -1.959,-18.34375 -2.3782,-9.00707 -6.7751,-18.00827 -12.375,-25.33008 -9.8813,-12.91918 -24.6235,-22.04644 -39.9141,-24.71289 -3.9234,-0.68328 -6.8827,-1.042 -9.8554,-1.09375 z m -115.21878,25.88867 c 5.30685,-10e-4 10.71764,0.59297 14.51953,1.78125 11.33775,3.54285 14.65196,3.00695 24.98047,12.73047 8.79333,8.27849 13.42382,19.79101 13.42382,19.79101 0,0 19.34166,-20.3383 31.60746,-25.91015 12.2657,-5.57125 27.7347,-10.71995 39.4121,-6.60938 11.677,4.11058 29.6651,20.15 34.5527,37.8086 1.9337,6.9905 1.772,22.45795 -0.3242,30.8457 -4.4569,17.83861 -14.6523,35.83471 -32.2695,56.96484 -19.3044,23.15339 -41.594,41.32552 -61.0723,49.79102 -8.21694,3.57015 -10.93054,3.66917 -18.11524,0.66211 C 965.88485,552.29611 942.13522,530.82777 920,502.5332 c -17.91666,-22.90136 -28.6526,-45.59667 -28.66016,-64.7207 -0.004,-6.4964 1.89618,-16.15413 4.33008,-22 5.69167,-13.67195 18.04506,-25.37949 31.90625,-30.24219 3.39235,-1.19047 8.59549,-1.78772 13.90235,-1.78906 z"
       transform="matrix(0.26458333,0,0,0.26458333,0,117)"
       id="path875-0"
       inkscape:connector-curvature="0"
       sodipodi:nodetypes="sccccccccccczcccccccaccsccscccccssccccccccccccccsc" />
    <g
       aria-label="to go"
       style="font-style:normal;font-variant:normal;font-weight:normal;font-stretch:normal;font-size:89.20650482px;line-height:1.25;font-family:'Friend Write';-inkscape-font-specification:'Friend Write';letter-spacing:0px;word-spacing:0px;fill:#ff0000;fill-opacity:1;stroke:none;stroke-width:2.23016238"
       id="text1025">
      <path
         d="m 238.53052,179.94571 c 3.12222,3.03302 5.62001,1.4273 9.18827,-0.98128 4.28191,-3.03302 8.20699,-6.15524 12.57811,-9.36668 -0.0892,-0.17841 0,-0.35682 -0.0892,-0.53524 -1.60572,-2.7654 -2.76541,-3.12223 -5.79843,-1.24889 -4.1927,2.6762 -7.85017,6.06604 -12.22129,9.00986 0.62445,-9.36668 13.02415,-27.92164 19.44702,-37.64515 l 27.92164,-0.89206 2.14095,-0.35683 c -0.89206,-2.7654 -1.96254,-3.56826 -4.63874,-3.65746 -11.86446,0 -19.98225,-0.0892 -21.05273,-0.17842 2.94381,-3.92508 6.15525,-7.13652 9.90192,-10.08033 0.98127,-1.87334 -5.26318,-5.35239 -9.09906,-2.58699 -3.92509,2.40857 -9.5451,9.00986 -13.38098,13.11336 -2.05175,0.98127 -9.54509,0.89206 -12.3997,1.15968 -0.26762,1.96254 0.98127,2.94381 2.14095,4.01429 1.60572,1.3381 4.90636,0.26762 7.31494,0.35683 -8.56383,11.68605 -18.82258,33.09561 -11.95367,39.87531 z"
         style="font-style:normal;font-variant:normal;font-weight:normal;font-stretch:normal;font-family:'Friend Write';-inkscape-font-specification:'Friend Write';fill:#ff0000;stroke-width:2.23016238"
         id="path61" />
      <path
         d="m 283.3749,164.7806 c 2.6762,-6.95811 3.12223,-13.91621 -6.42286,-16.5032 -5.79843,-1.51651 -10.79399,2.67619 -12.66733,10.34795 -4.81715,2.14096 -8.38541,6.51208 -7.85017,12.22129 0.0892,1.51651 0.53524,3.21144 1.51651,4.63874 4.28191,5.79842 11.32923,7.04731 16.86003,1.51651 2.23016,-1.96254 3.92509,-4.46032 5.70922,-6.8689 1.87333,-2.67619 3.74667,0 8.83144,-1.51651 2.31937,-0.71365 2.40858,-2.94381 -0.0892,-3.12223 -1.69492,-0.0892 -4.01429,0.0892 -5.88763,-0.71365 z m -18.64416,9.45589 c -2.49778,-4.01429 -0.53523,-9.18827 3.83588,-9.99113 1.42731,1.07048 2.40858,1.96254 3.74668,2.31937 -1.60572,3.30064 -5.88763,9.09906 -7.58256,7.67176 z m 6.86891,-12.84574 c 0.80285,-2.94381 5.44159,-10.43716 7.58255,-8.11779 -0.26762,1.96254 -3.92509,9.90192 -7.58255,8.11779 z"
         style="font-style:normal;font-variant:normal;font-weight:normal;font-stretch:normal;font-family:'Friend Write';-inkscape-font-specification:'Friend Write';fill:#ff0000;stroke-width:2.23016238"
         id="path63" />
      <path
         d="m 347.74716,155.41392 c -0.89207,-1.07048 -1.96254,-2.58699 -3.21144,-3.74668 -1.60571,-1.4273 -2.67619,-1.15968 -3.83588,0.71366 -0.53523,0.71365 -0.98127,1.60571 -1.51651,2.40857 -0.80285,-0.62444 -1.33809,-1.24889 -1.96254,-1.78413 -3.21143,-2.94381 -6.95811,-4.46032 -11.32922,-3.83588 -9.63431,1.24889 -16.59241,9.5451 -16.23559,19.44702 0.17841,3.65747 1.96254,6.24446 4.99557,8.207 1.51651,0.89206 3.12222,1.3381 4.81715,0.62444 2.05175,-1.07047 4.01429,-2.14095 5.97683,-3.30064 1.3381,-0.80286 2.40858,-1.69492 3.47906,-2.58699 0.17841,0.17842 0.26762,0.35683 0.44603,0.44604 -1.69492,2.85461 -3.21144,5.79842 -4.99557,8.56382 -3.30064,4.99557 -6.60128,10.16954 -11.24002,14.18384 -3.12222,2.8546 -6.60128,5.08477 -10.9724,5.62001 -1.60571,0.17841 -2.7654,-0.0892 -3.83587,-1.60572 -0.89207,-1.42731 -2.14096,-2.6762 -4.19271,-2.6762 -0.44603,1.87334 -0.44603,1.96255 0.17841,3.30064 2.23017,4.81716 8.74224,10.08034 16.414,7.58256 3.12223,-1.15969 5.88763,-2.7654 8.38541,-4.90636 4.1035,-3.38985 7.22573,-7.58255 10.08034,-11.86447 6.60128,-9.7235 11.24002,-20.33908 16.32479,-30.77624 0.62444,-1.15968 1.33809,-2.40858 2.23016,-4.01429 z m -32.29276,17.8413 c -0.35682,-3.65747 0.98128,-6.06604 2.6762,-8.29621 3.30064,-4.46032 7.67176,-7.22572 12.93494,-8.65303 2.23017,-0.53524 4.46033,-0.44603 6.69049,1.24889 -7.40414,5.17398 -14.00542,11.32923 -22.30163,15.70035 z"
         style="font-style:normal;font-variant:normal;font-weight:normal;font-stretch:normal;font-family:'Friend Write';-inkscape-font-specification:'Friend Write';fill:#ff0000;stroke-width:2.23016238"
         id="path65" />
      <path
         d="m 374.49795,164.7806 c 2.6762,-6.95811 3.12223,-13.91621 -6.42287,-16.5032 -5.79842,-1.51651 -10.79398,2.67619 -12.66732,10.34795 -4.81715,2.14096 -8.38541,6.51208 -7.85017,12.22129 0.0892,1.51651 0.53524,3.21144 1.51651,4.63874 4.28191,5.79842 11.32922,7.04731 16.86003,1.51651 2.23016,-1.96254 3.92508,-4.46032 5.70921,-6.8689 1.87334,-2.67619 3.74668,0 8.83145,-1.51651 2.31937,-0.71365 2.40857,-2.94381 -0.0892,-3.12223 -1.69492,-0.0892 -4.01429,0.0892 -5.88763,-0.71365 z m -18.64416,9.45589 c -2.49778,-4.01429 -0.53524,-9.18827 3.83588,-9.99113 1.42731,1.07048 2.40858,1.96254 3.74668,2.31937 -1.60572,3.30064 -5.88763,9.09906 -7.58256,7.67176 z m 6.8689,-12.84574 c 0.80286,-2.94381 5.4416,-10.43716 7.58256,-8.11779 -0.26762,1.96254 -3.92509,9.90192 -7.58256,8.11779 z"
         style="font-style:normal;font-variant:normal;font-weight:normal;font-stretch:normal;font-family:'Friend Write';-inkscape-font-specification:'Friend Write';fill:#ff0000;stroke-width:2.23016238"
         id="path67" />
    </g>
    <g
       id="g4609"
       style="stroke:#ff0000;stroke-width:1.58231969;stroke-linecap:round;stroke-linejoin:round;stroke-miterlimit:4;stroke-dasharray:none;stroke-opacity:1"
       transform="matrix(2.2513267,-0.49542834,0.45615597,2.0728651,-594.19912,-266.79527)">
      <path
         inkscape:connector-curvature="0"
         id="path4598"
         d="m 336.16908,324.55675 31.29327,-16.11369 -7.70656,26.62263 -8.05685,-8.05685 15.99693,-18.68255 -22.30229,17.63166 z"
         style="fill:none;stroke:#ff0000;stroke-width:1.58231969;stroke-linecap:round;stroke-linejoin:round;stroke-miterlimit:4;stroke-dasharray:none;stroke-opacity:1" />
      <path
         inkscape:connector-curvature="0"
         id="path4600"
         d="m 345.39359,325.95795 3.85326,5.60476 2.45209,-4.55387"
         style="fill:none;stroke:#ff0000;stroke-width:1.58231969;stroke-linecap:round;stroke-linejoin:round;stroke-miterlimit:4;stroke-dasharray:none;stroke-opacity:1" />
      <path
         sodipodi:nodetypes="cc"
         inkscape:connector-curvature="0"
         id="path4602"
         d="m 349.24685,331.56271 3.50299,-3.38621"
         style="fill:none;stroke:#ff0000;stroke-width:1.58231969;stroke-linecap:round;stroke-linejoin:round;stroke-miterlimit:4;stroke-dasharray:none;stroke-opacity:1" />
    </g>
  </g>
</svg>
