<?xml version="1.0" encoding="UTF-8" standalone="no"?>
<!-- Created with Inkscape (http://www.inkscape.org/) -->

<svg
   xmlns:dc="http://purl.org/dc/elements/1.1/"
   xmlns:cc="http://creativecommons.org/ns#"
   xmlns:rdf="http://www.w3.org/1999/02/22-rdf-syntax-ns#"
   xmlns:svg="http://www.w3.org/2000/svg"
   xmlns="http://www.w3.org/2000/svg"
   xmlns:sodipodi="http://sodipodi.sourceforge.net/DTD/sodipodi-0.dtd"
   xmlns:inkscape="http://www.inkscape.org/namespaces/inkscape"
   width="3.5277727mm"
   height="2.8014462mm"
   viewBox="0 0 3.5277727 2.8014462"
   version="1.1"
   id="svg8"
   inkscape:version="0.92.3 (2405546, 2018-03-11)"
   sodipodi:docname="tick-mark.svg">
  <defs
     id="defs2" />
  <sodipodi:namedview
     id="base"
     pagecolor="#ffffff"
     bordercolor="#666666"
     borderopacity="1.0"
     inkscape:pageopacity="0.0"
     inkscape:pageshadow="2"
     inkscape:zoom="0.65195043"
     inkscape:cx="-60.011655"
     inkscape:cy="-14.737985"
     inkscape:document-units="mm"
     inkscape:current-layer="layer1"
     showgrid="false"
     fit-margin-top="0"
     fit-margin-left="0"
     fit-margin-right="0"
     fit-margin-bottom="0"
     inkscape:window-width="1366"
     inkscape:window-height="704"
     inkscape:window-x="0"
     inkscape:window-y="27"
     inkscape:window-maximized="1" />
  <metadata
     id="metadata5">
    <rdf:RDF>
      <cc:Work
         rdf:about="">
        <dc:format>image/svg+xml</dc:format>
        <dc:type
           rdf:resource="http://purl.org/dc/dcmitype/StillImage" />
        <dc:title></dc:title>
      </cc:Work>
    </rdf:RDF>
  </metadata>
  <g
     inkscape:label="Layer 1"
     inkscape:groupmode="layer"
     id="layer1"
     transform="translate(-23.897946,-105.39562)">
    <path
       style="stroke-width:0.00553518"
       d="m 24.337612,105.71028 c -0.146323,0 -0.264937,0.11929 -0.264937,0.26644 v 1.95391 c 0,0.14715 0.118614,0.26644 0.264937,0.26644 h 1.942875 c 0.146323,0 0.264937,-0.11929 0.264937,-0.26644 v -1.95391 c 0,-0.14715 -0.118614,-0.26644 -0.264937,-0.26644 z m 0,0.26644 h 1.942875 v 1.95391 h -1.942875 z"
       id="path836"
       inkscape:connector-curvature="0" />
    <path
       style="fill:#00ff00;stroke-width:0.01231094"
       d="m 27.382158,105.92941 -2.118724,2.11365 c -0.05776,0.0576 -0.151033,0.0572 -0.208326,-8.3e-4 l -1.114438,-1.12985 c -0.05729,-0.0581 -0.05692,-0.15189 8.47e-4,-0.20952 l 0.278901,-0.27822 c 0.05776,-0.0576 0.151033,-0.0572 0.208326,8.5e-4 l 0.734014,0.74417 1.735254,-1.73109 c 0.05776,-0.0576 0.151033,-0.0572 0.208326,8.4e-4 l 0.276655,0.28047 c 0.05729,0.0581 0.05692,0.15191 -8.35e-4,0.20953 z"
       id="path10"
       inkscape:connector-curvature="0" />
  </g>
</svg>
