<?xml version="1.0" encoding="UTF-8"?>
<svg width="120mm" height="120mm" version="1.1" viewBox="0 0 120 120" xmlns="http://www.w3.org/2000/svg">
 <g transform="translate(0,-177)">
  <path d="m6.6233 226.23v64.185c0 2.098 2.1184 3.5325 4.0663 2.7541l25.587-11.646v-71.169l-25.925 10.37a5.9319 5.9319 0 0 0-3.729 5.5063zm35.584 55.293 35.584 11.861v-71.169l-35.584-11.862zm67.103-70.954-25.587 11.647v71.169l25.925-10.37a5.93 5.93 0 0 0 3.729-5.5063v-64.185c0-2.098-2.1184-3.5325-4.0663-2.7541z" stroke-width=".18534"/>
  <path d="m93.141 187.45c-8.8029-7.5018-21.895-6.1524-29.975 2.1847l-3.1646 3.261-3.1646-3.261c-8.064-8.3371-21.172-9.6865-29.975-2.1847-10.088 8.6102-10.618 24.064-1.5903 33.397l31.083 32.095c2.008 2.0722 5.2689 2.0722 7.2769 0l31.083-32.095c9.0439-9.3331 8.5138-24.786-1.5743-33.397z" fill="#f00" stroke-width=".16064"/>
 </g>
</svg>
